<?xml version="1.0" standalone="no"?>
<!DOCTYPE svg PUBLIC "-//W3C//DTD SVG 20010904//EN"
 "http://www.w3.org/TR/2001/REC-SVG-20010904/DTD/svg10.dtd">
<svg version="1.0" xmlns="http://www.w3.org/2000/svg"
 width="48.000000pt" height="48.000000pt" viewBox="0 0 48.000000 48.000000"
 preserveAspectRatio="xMidYMid meet">

<g transform="translate(0.000000,48.000000) scale(0.100000,-0.100000)"
fill="#000000" stroke="none">
<path d="M86 308 c-3 -50 -6 -118 -6 -151 l0 -59 160 4 160 3 0 66 c0 36 -3
101 -6 143 -7 71 -8 76 -27 70 -34 -11 -247 -6 -261 5 -10 9 -14 -8 -20 -81z
m184 7 c0 -8 12 -20 28 -27 30 -15 36 -41 10 -46 -13 -2 -18 3 -18 17 0 14 -6
21 -20 21 -21 0 -29 -35 -9 -42 12 -4 1 -38 -12 -38 -4 0 -13 9 -19 20 -7 14
-7 20 0 20 5 0 10 9 10 20 0 24 -9 25 -36 5 -12 -9 -14 -14 -6 -15 21 0 3 -20
-19 -20 -10 0 -19 2 -19 4 0 18 17 39 41 52 16 8 28 18 28 22 -2 14 1 18 21
19 11 1 20 -4 20 -12z"/>
<path d="M80 80 c0 -6 60 -10 159 -10 96 0 162 4 166 10 4 7 -52 10 -159 10
-104 0 -166 -4 -166 -10z"/>
</g>
</svg>
