/* XPM */
static char *image_xpm[] = {
/* width height ncolors chars_per_pixel */
"32 32 194 2",
"   c #404040",
" . c #d0d0d0",
" + c #e0e0e0",
" @ c #707070",
" # c #606060",
" $ c #f0f0f0",
" % c #c0c0c0",
" & c #505050",
" * c #808080",
" = c #595a5a",
" - c #929392",
" ; c #f7f7f7",
" > c #4c4d4d",
" , c #ededed",
" ' c #414140",
" ) c #757575",
" ! c #808181",
" ~ c #8e8e8e",
" { c #3f3f3f",
" ] c #414141",
" ^ c #737475",
" / c #717070",
" ( c #747474",
" _ c #f2f2f2",
" : c #6b6b6b",
" < c #666666",
" [ c #adadad",
" } c #7f7f7f",
" | c #818181",
" 1 c #5c5c5c",
" 2 c #595959",
" 3 c #c6c6c6",
" 4 c #888888",
" 5 c #c8c8c8",
" 6 c #484848",
" 7 c #767676",
" 8 c #646464",
" 9 c #c1c1c1",
" 0 c #9b9b9b",
" a c #f3f3f3",
" b c #dedede",
" c c #e2e2e2",
" d c #545555",
" e c #6d6d6d",
" f c #4c4c4c",
" g c #5c5d5c",
" h c #595958",
" i c #3e3e3e",
" j c #ffffff",
" k c #424242",
" l c #454545",
" m c #393939",
" n c #e9e9e9",
" o c #dddddd",
" p c #cecece",
" q c #bcbcbc",
" r c #a0a0a1",
" s c #c4c4c4",
" t c #717171",
" u c #c3c3c3",
" v c #d5d5d5",
" w c #565656",
" x c #cdcdcd",
" y c #cacaca",
" z c #737373",
" A c #7b7b7b",
" B c #5f5f5f",
" C c #7a7a7a",
" D c #cbcbcb",
" E c #353535",
" F c #4f4e50",
" G c #dadada",
" H c #d7d7d7",
" I c #f1f1f1",
" J c #9f9f9f",
" K c #4f4f4f",
" L c #e7e7e7",
" M c #7e7e7e",
" N c #858585",
" O c #d8d8d8",
" P c #585858",
" Q c #5d5d5d",
" R c #474747",
" S c #8b8c8b",
" T c #8b8b8c",
" U c #787978",
" V c #dfdfdf",
" W c #3d3d3d",
" X c #777777",
" Y c #868686",
" Z c #434343",
" ` c #626162",
".  c #afafaf",
".. c #4d4d4d",
".+ c #e6e6e6",
".@ c #cfcfcf",
".# c #737572",
".$ c #7c7c7c",
".% c #5d5e5d",
".& c #5e5d5d",
".* c #7e7e7d",
".= c #f6f6f6",
".- c #797979",
".; c #848484",
".> c #939393",
"., c #5f605f",
".' c #434344",
".) c #434443",
".! c #656565",
".~ c #464645",
".{ c #6c6c6c",
".] c #979797",
".^ c #c2c2c2",
"./ c #c9c9c9",
".( c #656464",
"._ c #535353",
".: c #959595",
".< c #dcdcdc",
".[ c #525252",
".} c #575857",
".| c #373737",
".1 c #8a8a8a",
".2 c #5d5e5e",
".3 c #696969",
".4 c #e8e8e8",
".5 c #a8a8a8",
".6 c #686868",
".7 c #3a3a3a",
".8 c #444443",
".9 c #e4e4e4",
".0 c #fbfbfb",
".a c #d6d6d6",
".b c #8b8b8b",
".c c #cccccc",
".d c #757574",
".e c #878787",
".f c #fdfdfd",
".g c #fafafa",
".h c #545454",
".i c #727272",
".j c #d9d9d9",
".k c #a5a5a5",
".l c #767675",
".m c #e3e3e3",
".n c #3c3c3c",
".o c #515151",
".p c #fefefe",
".q c #686766",
".r c #444444",
".s c #575757",
".t c #a6a6a6",
".u c #6a6a6a",
".v c #676767",
".w c #5e5e5e",
".x c #626262",
".y c #939394",
".z c #949393",
".A c #9d9d9d",
".B c #929292",
".C c #b9b9b9",
".D c #616161",
".E c #7d7d7d",
".F c #d1d1d1",
".G c #838383",
".H c #4e4e4e",
".I c #9c9c9c",
".J c #787878",
".K c #b8b8b8",
".L c #f8f8f8",
".M c #6e6f6f",
".N c #636363",
".O c #a4a4a4",
".P c #b2b2b2",
".Q c #6f6f6f",
".R c #e1e1e1",
".S c #525353",
".T c #8f8f8f",
".U c #4a4a4a",
".V c #696968",
".W c #555555",
".X c #6e6e6e",
".Y c #8a8b8b",
".Z c #9e9e9e",
".` c #c7c7c7",
"+  c #969696",
"+. c #494949",
"++ c #5b5b5b",
"+@ c #5a5a5a",
"+# c #686768",
"+$ c #fcfcfc",
"+% c #d2d2d2",
"+& c #efefef",
"+* c #4b4b4b",
"+= c #6d6e6e",
" j j j j j j j j j j j j j j j j j j j j j j j j j j j j j j j j",
" j j j j j j j j j j j j j j j j j j j j j j j j j j j j j j j j",
" j j j j j j j j j j j j j j j j j j j j j j j j j j j j j j j j",
" j j j j j j a.e.Z.I.I.I.I.I.I.Z r.Z.Z.Z.Z.Z.I.I 0 Y j j j j j j",
" j j j j j j ~.e.B.B.B.B.B -.B.B -.>.>.y.y.z.y.B.: 4 j j j j j j",
" j j j j j j A.G.1.1.1.1.1.1.1.Y.b S.Y.b.Y.1.1.1 T.G j j j j j j",
" j j j j j b  .J.$.$.$.$.$.$.* } | ! } M.E.E.$.$ M.$ O.4 j j j j",
" j j j.9.@ .   7 ) ) ) ) ) ) ) 7.J.- A C.J.J X X.- C.P . V.9 j j",
" j j j + 9.4 '.q <.v.v.u.X @.i z ( z.i z z z z z z ).K , p o j j",
" j j ;.@./ 3 k ` # #.D 8 e t 7 7 ( z z.i.i.i t.i.M z 0 3 D x j j",
" j j.p.m s $ W d.W h 2 1.D.v X [ _ _.J 7 z t @.{ e.x.A.= G.R j j",
" j j+& ..@ 5 ' F.S.h.}+@.N.3 7.J _ _.J.J ).i.X.u+# { 4.` y . j j",
" j j.g.R 3 $ m.' 6 >.S g z X , , _./ _ _ Y X e.! E.|.$ _ v + j j",
" j j c.F.@.` m {.8.~.H.w r _ _.J G.J.J.J ,.t.i.2 m.7.X 3 3.F j j",
" j j.+ .+% n.7 ] ] '.W ( _.J.J.J _.J.J.J , , 2.n { i.D.9 u . j j",
" j j.a y+% % {.r.).).%.5 _ _.J.J _.J.J.J q.K K { ] ] w.C.^./ j j",
" j j.a y.<.j l+. f f w.u.J X X.J _ _.J 7 Q.s 6 Z.~ R &.F q y.p j",
" j j x 5 x.K.U...o.[ 2.x.Q.Q @ z _ _ t.{.s._+* R+*+* K.P 3 5.0 j",
" j j + O n.@.W 2 Q B <.3 :.{.X.X.i e+@ w.s.h._._.o.o K.K u.a.p j",
" j j . y D.  1 B.x 8.u.X.X.X.X e.V++ w w.W w w.W._._.[ J./ y ; j",
" j j H+%.4.K.6.u.Q /.d.l.#+= = = P P 2 2 P P 2 P P P.o.A 3.@ ; j",
" j j.R O v.k.X @.d X U ^.(.&++ 2 2+++@ 1++++++++++++ w.b . v.L j",
" j j 9 q.R.O e : 8 `., #.D # # # # # # # # # # # # #++ N y q.c j",
" j j b x.m.A.x.x.x.N.N.N.N.N.N.N.N.N.N.N.N.N.N.N.N.N.w | b y I j",
" j.f 3 u j p 7 7.$.$.$.$.$.$.$.$.$.$ *.;.;.;.;.;.;.; } ~ ,.^ u.g",
" j j ;.g j .+ .:+ + + + + + + + + + + .].].].].].].].B.T j.0.0 j",
" j j j j j s X X X X X X X X X X X X X X X X X X X X X.] j j j j",
" j j j j j+$.a H H H H H H H.< c.R.R.R.R.R.R.R.R.R.R L.g j j j j",
" j j j j j j j j j j j j j j j j j j j j j j j j j j j j j j j j",
" j j j j j j j j j j j j j j j j j j j j j j j j j j j j j j j j",
" j j j j j j j j j j j j j j j j j j j j j j j j j j j j j j j j",
" j j j j j j j j j j j j j j j j j j j j j j j j j j j j j j j j",
};