%TF.GenerationSoftware,KiCad,Pcbnew,8.0.0*%
%TF.CreationDate,2024-03-08T17:43:32-03:00*%
%TF.ProjectId,usbflashprog,75736266-6c61-4736-9870-726f672e6b69,v0.3.0 rev.A*%
%TF.SameCoordinates,Original*%
%TF.FileFunction,Drillmap*%
%TF.FilePolarity,Positive*%
%FSLAX45Y45*%
G04 Gerber Fmt 4.5, Leading zero omitted, Abs format (unit mm)*
G04 Created by KiCad (PCBNEW 8.0.0) date 2024-03-08 17:43:32*
%MOMM*%
%LPD*%
G01*
G04 APERTURE LIST*
%ADD10C,0.100000*%
%ADD11C,0.200000*%
%ADD12C,0.150000*%
%ADD13C,0.180000*%
%ADD14C,0.270000*%
G04 APERTURE END LIST*
D10*
X6477500Y-2431400D02*
X21354500Y-2431400D01*
X21354500Y-15647400D01*
X6477500Y-15647400D01*
X6477500Y-2431400D01*
D11*
D12*
X7228000Y-9995900D02*
X7378000Y-10145900D01*
X7378000Y-9995900D02*
X7228000Y-10145900D01*
X7228000Y-10480900D02*
X7378000Y-10630900D01*
X7378000Y-10480900D02*
X7228000Y-10630900D01*
D13*
X7090000Y-10040900D02*
G75*
G02*
X6910000Y-10040900I-90000J0D01*
G01*
X6910000Y-10040900D02*
G75*
G02*
X7090000Y-10040900I90000J0D01*
G01*
X7090000Y-10585900D02*
G75*
G02*
X6910000Y-10585900I-90000J0D01*
G01*
X6910000Y-10585900D02*
G75*
G02*
X7090000Y-10585900I90000J0D01*
G01*
D14*
X7239000Y-12057000D02*
X7239000Y-12327000D01*
X7104000Y-12192000D02*
X7374000Y-12192000D01*
X7620000Y-3167000D02*
X7620000Y-3437000D01*
X7485000Y-3302000D02*
X7755000Y-3302000D01*
X20701000Y-2913000D02*
X20701000Y-3183000D01*
X20566000Y-3048000D02*
X20836000Y-3048000D01*
X20701000Y-14216000D02*
X20701000Y-14486000D01*
X20566000Y-14351000D02*
X20836000Y-14351000D01*
D11*
X6733277Y-15963884D02*
X6733277Y-15763884D01*
X6733277Y-15763884D02*
X6780896Y-15763884D01*
X6780896Y-15763884D02*
X6809467Y-15773408D01*
X6809467Y-15773408D02*
X6828515Y-15792455D01*
X6828515Y-15792455D02*
X6838039Y-15811503D01*
X6838039Y-15811503D02*
X6847562Y-15849598D01*
X6847562Y-15849598D02*
X6847562Y-15878169D01*
X6847562Y-15878169D02*
X6838039Y-15916265D01*
X6838039Y-15916265D02*
X6828515Y-15935312D01*
X6828515Y-15935312D02*
X6809467Y-15954360D01*
X6809467Y-15954360D02*
X6780896Y-15963884D01*
X6780896Y-15963884D02*
X6733277Y-15963884D01*
X6933277Y-15963884D02*
X6933277Y-15830550D01*
X6933277Y-15868646D02*
X6942801Y-15849598D01*
X6942801Y-15849598D02*
X6952324Y-15840074D01*
X6952324Y-15840074D02*
X6971372Y-15830550D01*
X6971372Y-15830550D02*
X6990420Y-15830550D01*
X7057086Y-15963884D02*
X7057086Y-15830550D01*
X7057086Y-15763884D02*
X7047562Y-15773408D01*
X7047562Y-15773408D02*
X7057086Y-15782931D01*
X7057086Y-15782931D02*
X7066610Y-15773408D01*
X7066610Y-15773408D02*
X7057086Y-15763884D01*
X7057086Y-15763884D02*
X7057086Y-15782931D01*
X7180896Y-15963884D02*
X7161848Y-15954360D01*
X7161848Y-15954360D02*
X7152324Y-15935312D01*
X7152324Y-15935312D02*
X7152324Y-15763884D01*
X7285658Y-15963884D02*
X7266610Y-15954360D01*
X7266610Y-15954360D02*
X7257086Y-15935312D01*
X7257086Y-15935312D02*
X7257086Y-15763884D01*
X7514229Y-15963884D02*
X7514229Y-15763884D01*
X7514229Y-15763884D02*
X7580896Y-15906741D01*
X7580896Y-15906741D02*
X7647562Y-15763884D01*
X7647562Y-15763884D02*
X7647562Y-15963884D01*
X7828515Y-15963884D02*
X7828515Y-15859122D01*
X7828515Y-15859122D02*
X7818991Y-15840074D01*
X7818991Y-15840074D02*
X7799943Y-15830550D01*
X7799943Y-15830550D02*
X7761848Y-15830550D01*
X7761848Y-15830550D02*
X7742801Y-15840074D01*
X7828515Y-15954360D02*
X7809467Y-15963884D01*
X7809467Y-15963884D02*
X7761848Y-15963884D01*
X7761848Y-15963884D02*
X7742801Y-15954360D01*
X7742801Y-15954360D02*
X7733277Y-15935312D01*
X7733277Y-15935312D02*
X7733277Y-15916265D01*
X7733277Y-15916265D02*
X7742801Y-15897217D01*
X7742801Y-15897217D02*
X7761848Y-15887693D01*
X7761848Y-15887693D02*
X7809467Y-15887693D01*
X7809467Y-15887693D02*
X7828515Y-15878169D01*
X7923753Y-15830550D02*
X7923753Y-16030550D01*
X7923753Y-15840074D02*
X7942801Y-15830550D01*
X7942801Y-15830550D02*
X7980896Y-15830550D01*
X7980896Y-15830550D02*
X7999943Y-15840074D01*
X7999943Y-15840074D02*
X8009467Y-15849598D01*
X8009467Y-15849598D02*
X8018991Y-15868646D01*
X8018991Y-15868646D02*
X8018991Y-15925788D01*
X8018991Y-15925788D02*
X8009467Y-15944836D01*
X8009467Y-15944836D02*
X7999943Y-15954360D01*
X7999943Y-15954360D02*
X7980896Y-15963884D01*
X7980896Y-15963884D02*
X7942801Y-15963884D01*
X7942801Y-15963884D02*
X7923753Y-15954360D01*
X8104705Y-15944836D02*
X8114229Y-15954360D01*
X8114229Y-15954360D02*
X8104705Y-15963884D01*
X8104705Y-15963884D02*
X8095182Y-15954360D01*
X8095182Y-15954360D02*
X8104705Y-15944836D01*
X8104705Y-15944836D02*
X8104705Y-15963884D01*
X8104705Y-15840074D02*
X8114229Y-15849598D01*
X8114229Y-15849598D02*
X8104705Y-15859122D01*
X8104705Y-15859122D02*
X8095182Y-15849598D01*
X8095182Y-15849598D02*
X8104705Y-15840074D01*
X8104705Y-15840074D02*
X8104705Y-15859122D01*
D12*
X6322500Y-16217400D02*
X6472500Y-16367400D01*
X6472500Y-16217400D02*
X6322500Y-16367400D01*
D11*
X6838039Y-16383884D02*
X6723753Y-16383884D01*
X6780896Y-16383884D02*
X6780896Y-16183884D01*
X6780896Y-16183884D02*
X6761848Y-16212455D01*
X6761848Y-16212455D02*
X6742801Y-16231503D01*
X6742801Y-16231503D02*
X6723753Y-16241027D01*
X6923753Y-16364836D02*
X6933277Y-16374360D01*
X6933277Y-16374360D02*
X6923753Y-16383884D01*
X6923753Y-16383884D02*
X6914229Y-16374360D01*
X6914229Y-16374360D02*
X6923753Y-16364836D01*
X6923753Y-16364836D02*
X6923753Y-16383884D01*
X7114229Y-16183884D02*
X7018991Y-16183884D01*
X7018991Y-16183884D02*
X7009467Y-16279122D01*
X7009467Y-16279122D02*
X7018991Y-16269598D01*
X7018991Y-16269598D02*
X7038039Y-16260074D01*
X7038039Y-16260074D02*
X7085658Y-16260074D01*
X7085658Y-16260074D02*
X7104705Y-16269598D01*
X7104705Y-16269598D02*
X7114229Y-16279122D01*
X7114229Y-16279122D02*
X7123753Y-16298169D01*
X7123753Y-16298169D02*
X7123753Y-16345788D01*
X7123753Y-16345788D02*
X7114229Y-16364836D01*
X7114229Y-16364836D02*
X7104705Y-16374360D01*
X7104705Y-16374360D02*
X7085658Y-16383884D01*
X7085658Y-16383884D02*
X7038039Y-16383884D01*
X7038039Y-16383884D02*
X7018991Y-16374360D01*
X7018991Y-16374360D02*
X7009467Y-16364836D01*
X7247562Y-16183884D02*
X7266610Y-16183884D01*
X7266610Y-16183884D02*
X7285658Y-16193408D01*
X7285658Y-16193408D02*
X7295182Y-16202931D01*
X7295182Y-16202931D02*
X7304705Y-16221979D01*
X7304705Y-16221979D02*
X7314229Y-16260074D01*
X7314229Y-16260074D02*
X7314229Y-16307693D01*
X7314229Y-16307693D02*
X7304705Y-16345788D01*
X7304705Y-16345788D02*
X7295182Y-16364836D01*
X7295182Y-16364836D02*
X7285658Y-16374360D01*
X7285658Y-16374360D02*
X7266610Y-16383884D01*
X7266610Y-16383884D02*
X7247562Y-16383884D01*
X7247562Y-16383884D02*
X7228515Y-16374360D01*
X7228515Y-16374360D02*
X7218991Y-16364836D01*
X7218991Y-16364836D02*
X7209467Y-16345788D01*
X7209467Y-16345788D02*
X7199943Y-16307693D01*
X7199943Y-16307693D02*
X7199943Y-16260074D01*
X7199943Y-16260074D02*
X7209467Y-16221979D01*
X7209467Y-16221979D02*
X7218991Y-16202931D01*
X7218991Y-16202931D02*
X7228515Y-16193408D01*
X7228515Y-16193408D02*
X7247562Y-16183884D01*
X7438039Y-16183884D02*
X7457086Y-16183884D01*
X7457086Y-16183884D02*
X7476134Y-16193408D01*
X7476134Y-16193408D02*
X7485658Y-16202931D01*
X7485658Y-16202931D02*
X7495182Y-16221979D01*
X7495182Y-16221979D02*
X7504705Y-16260074D01*
X7504705Y-16260074D02*
X7504705Y-16307693D01*
X7504705Y-16307693D02*
X7495182Y-16345788D01*
X7495182Y-16345788D02*
X7485658Y-16364836D01*
X7485658Y-16364836D02*
X7476134Y-16374360D01*
X7476134Y-16374360D02*
X7457086Y-16383884D01*
X7457086Y-16383884D02*
X7438039Y-16383884D01*
X7438039Y-16383884D02*
X7418991Y-16374360D01*
X7418991Y-16374360D02*
X7409467Y-16364836D01*
X7409467Y-16364836D02*
X7399943Y-16345788D01*
X7399943Y-16345788D02*
X7390420Y-16307693D01*
X7390420Y-16307693D02*
X7390420Y-16260074D01*
X7390420Y-16260074D02*
X7399943Y-16221979D01*
X7399943Y-16221979D02*
X7409467Y-16202931D01*
X7409467Y-16202931D02*
X7418991Y-16193408D01*
X7418991Y-16193408D02*
X7438039Y-16183884D01*
X7590420Y-16383884D02*
X7590420Y-16250550D01*
X7590420Y-16269598D02*
X7599943Y-16260074D01*
X7599943Y-16260074D02*
X7618991Y-16250550D01*
X7618991Y-16250550D02*
X7647563Y-16250550D01*
X7647563Y-16250550D02*
X7666610Y-16260074D01*
X7666610Y-16260074D02*
X7676134Y-16279122D01*
X7676134Y-16279122D02*
X7676134Y-16383884D01*
X7676134Y-16279122D02*
X7685658Y-16260074D01*
X7685658Y-16260074D02*
X7704705Y-16250550D01*
X7704705Y-16250550D02*
X7733277Y-16250550D01*
X7733277Y-16250550D02*
X7752324Y-16260074D01*
X7752324Y-16260074D02*
X7761848Y-16279122D01*
X7761848Y-16279122D02*
X7761848Y-16383884D01*
X7857086Y-16383884D02*
X7857086Y-16250550D01*
X7857086Y-16269598D02*
X7866610Y-16260074D01*
X7866610Y-16260074D02*
X7885658Y-16250550D01*
X7885658Y-16250550D02*
X7914229Y-16250550D01*
X7914229Y-16250550D02*
X7933277Y-16260074D01*
X7933277Y-16260074D02*
X7942801Y-16279122D01*
X7942801Y-16279122D02*
X7942801Y-16383884D01*
X7942801Y-16279122D02*
X7952324Y-16260074D01*
X7952324Y-16260074D02*
X7971372Y-16250550D01*
X7971372Y-16250550D02*
X7999943Y-16250550D01*
X7999943Y-16250550D02*
X8018991Y-16260074D01*
X8018991Y-16260074D02*
X8028515Y-16279122D01*
X8028515Y-16279122D02*
X8028515Y-16383884D01*
X8418991Y-16174360D02*
X8247563Y-16431503D01*
X8676134Y-16183884D02*
X8695182Y-16183884D01*
X8695182Y-16183884D02*
X8714229Y-16193408D01*
X8714229Y-16193408D02*
X8723753Y-16202931D01*
X8723753Y-16202931D02*
X8733277Y-16221979D01*
X8733277Y-16221979D02*
X8742801Y-16260074D01*
X8742801Y-16260074D02*
X8742801Y-16307693D01*
X8742801Y-16307693D02*
X8733277Y-16345788D01*
X8733277Y-16345788D02*
X8723753Y-16364836D01*
X8723753Y-16364836D02*
X8714229Y-16374360D01*
X8714229Y-16374360D02*
X8695182Y-16383884D01*
X8695182Y-16383884D02*
X8676134Y-16383884D01*
X8676134Y-16383884D02*
X8657087Y-16374360D01*
X8657087Y-16374360D02*
X8647563Y-16364836D01*
X8647563Y-16364836D02*
X8638039Y-16345788D01*
X8638039Y-16345788D02*
X8628515Y-16307693D01*
X8628515Y-16307693D02*
X8628515Y-16260074D01*
X8628515Y-16260074D02*
X8638039Y-16221979D01*
X8638039Y-16221979D02*
X8647563Y-16202931D01*
X8647563Y-16202931D02*
X8657087Y-16193408D01*
X8657087Y-16193408D02*
X8676134Y-16183884D01*
X8828515Y-16364836D02*
X8838039Y-16374360D01*
X8838039Y-16374360D02*
X8828515Y-16383884D01*
X8828515Y-16383884D02*
X8818991Y-16374360D01*
X8818991Y-16374360D02*
X8828515Y-16364836D01*
X8828515Y-16364836D02*
X8828515Y-16383884D01*
X8961848Y-16183884D02*
X8980896Y-16183884D01*
X8980896Y-16183884D02*
X8999944Y-16193408D01*
X8999944Y-16193408D02*
X9009468Y-16202931D01*
X9009468Y-16202931D02*
X9018991Y-16221979D01*
X9018991Y-16221979D02*
X9028515Y-16260074D01*
X9028515Y-16260074D02*
X9028515Y-16307693D01*
X9028515Y-16307693D02*
X9018991Y-16345788D01*
X9018991Y-16345788D02*
X9009468Y-16364836D01*
X9009468Y-16364836D02*
X8999944Y-16374360D01*
X8999944Y-16374360D02*
X8980896Y-16383884D01*
X8980896Y-16383884D02*
X8961848Y-16383884D01*
X8961848Y-16383884D02*
X8942801Y-16374360D01*
X8942801Y-16374360D02*
X8933277Y-16364836D01*
X8933277Y-16364836D02*
X8923753Y-16345788D01*
X8923753Y-16345788D02*
X8914229Y-16307693D01*
X8914229Y-16307693D02*
X8914229Y-16260074D01*
X8914229Y-16260074D02*
X8923753Y-16221979D01*
X8923753Y-16221979D02*
X8933277Y-16202931D01*
X8933277Y-16202931D02*
X8942801Y-16193408D01*
X8942801Y-16193408D02*
X8961848Y-16183884D01*
X9209468Y-16183884D02*
X9114229Y-16183884D01*
X9114229Y-16183884D02*
X9104706Y-16279122D01*
X9104706Y-16279122D02*
X9114229Y-16269598D01*
X9114229Y-16269598D02*
X9133277Y-16260074D01*
X9133277Y-16260074D02*
X9180896Y-16260074D01*
X9180896Y-16260074D02*
X9199944Y-16269598D01*
X9199944Y-16269598D02*
X9209468Y-16279122D01*
X9209468Y-16279122D02*
X9218991Y-16298169D01*
X9218991Y-16298169D02*
X9218991Y-16345788D01*
X9218991Y-16345788D02*
X9209468Y-16364836D01*
X9209468Y-16364836D02*
X9199944Y-16374360D01*
X9199944Y-16374360D02*
X9180896Y-16383884D01*
X9180896Y-16383884D02*
X9133277Y-16383884D01*
X9133277Y-16383884D02*
X9114229Y-16374360D01*
X9114229Y-16374360D02*
X9104706Y-16364836D01*
X9314229Y-16383884D02*
X9352325Y-16383884D01*
X9352325Y-16383884D02*
X9371372Y-16374360D01*
X9371372Y-16374360D02*
X9380896Y-16364836D01*
X9380896Y-16364836D02*
X9399944Y-16336265D01*
X9399944Y-16336265D02*
X9409468Y-16298169D01*
X9409468Y-16298169D02*
X9409468Y-16221979D01*
X9409468Y-16221979D02*
X9399944Y-16202931D01*
X9399944Y-16202931D02*
X9390420Y-16193408D01*
X9390420Y-16193408D02*
X9371372Y-16183884D01*
X9371372Y-16183884D02*
X9333277Y-16183884D01*
X9333277Y-16183884D02*
X9314229Y-16193408D01*
X9314229Y-16193408D02*
X9304706Y-16202931D01*
X9304706Y-16202931D02*
X9295182Y-16221979D01*
X9295182Y-16221979D02*
X9295182Y-16269598D01*
X9295182Y-16269598D02*
X9304706Y-16288646D01*
X9304706Y-16288646D02*
X9314229Y-16298169D01*
X9314229Y-16298169D02*
X9333277Y-16307693D01*
X9333277Y-16307693D02*
X9371372Y-16307693D01*
X9371372Y-16307693D02*
X9390420Y-16298169D01*
X9390420Y-16298169D02*
X9399944Y-16288646D01*
X9399944Y-16288646D02*
X9409468Y-16269598D01*
X9599944Y-16383884D02*
X9485658Y-16383884D01*
X9542801Y-16383884D02*
X9542801Y-16183884D01*
X9542801Y-16183884D02*
X9523753Y-16212455D01*
X9523753Y-16212455D02*
X9504706Y-16231503D01*
X9504706Y-16231503D02*
X9485658Y-16241027D01*
X9676134Y-16183884D02*
X9676134Y-16221979D01*
X9752325Y-16183884D02*
X9752325Y-16221979D01*
X10047563Y-16460074D02*
X10038039Y-16450550D01*
X10038039Y-16450550D02*
X10018991Y-16421979D01*
X10018991Y-16421979D02*
X10009468Y-16402931D01*
X10009468Y-16402931D02*
X9999944Y-16374360D01*
X9999944Y-16374360D02*
X9990420Y-16326741D01*
X9990420Y-16326741D02*
X9990420Y-16288646D01*
X9990420Y-16288646D02*
X9999944Y-16241027D01*
X9999944Y-16241027D02*
X10009468Y-16212455D01*
X10009468Y-16212455D02*
X10018991Y-16193408D01*
X10018991Y-16193408D02*
X10038039Y-16164836D01*
X10038039Y-16164836D02*
X10047563Y-16155312D01*
X10114230Y-16202931D02*
X10123753Y-16193408D01*
X10123753Y-16193408D02*
X10142801Y-16183884D01*
X10142801Y-16183884D02*
X10190420Y-16183884D01*
X10190420Y-16183884D02*
X10209468Y-16193408D01*
X10209468Y-16193408D02*
X10218991Y-16202931D01*
X10218991Y-16202931D02*
X10228515Y-16221979D01*
X10228515Y-16221979D02*
X10228515Y-16241027D01*
X10228515Y-16241027D02*
X10218991Y-16269598D01*
X10218991Y-16269598D02*
X10104706Y-16383884D01*
X10104706Y-16383884D02*
X10228515Y-16383884D01*
X10466611Y-16383884D02*
X10466611Y-16183884D01*
X10552325Y-16383884D02*
X10552325Y-16279122D01*
X10552325Y-16279122D02*
X10542801Y-16260074D01*
X10542801Y-16260074D02*
X10523753Y-16250550D01*
X10523753Y-16250550D02*
X10495182Y-16250550D01*
X10495182Y-16250550D02*
X10476134Y-16260074D01*
X10476134Y-16260074D02*
X10466611Y-16269598D01*
X10676134Y-16383884D02*
X10657087Y-16374360D01*
X10657087Y-16374360D02*
X10647563Y-16364836D01*
X10647563Y-16364836D02*
X10638039Y-16345788D01*
X10638039Y-16345788D02*
X10638039Y-16288646D01*
X10638039Y-16288646D02*
X10647563Y-16269598D01*
X10647563Y-16269598D02*
X10657087Y-16260074D01*
X10657087Y-16260074D02*
X10676134Y-16250550D01*
X10676134Y-16250550D02*
X10704706Y-16250550D01*
X10704706Y-16250550D02*
X10723753Y-16260074D01*
X10723753Y-16260074D02*
X10733277Y-16269598D01*
X10733277Y-16269598D02*
X10742801Y-16288646D01*
X10742801Y-16288646D02*
X10742801Y-16345788D01*
X10742801Y-16345788D02*
X10733277Y-16364836D01*
X10733277Y-16364836D02*
X10723753Y-16374360D01*
X10723753Y-16374360D02*
X10704706Y-16383884D01*
X10704706Y-16383884D02*
X10676134Y-16383884D01*
X10857087Y-16383884D02*
X10838039Y-16374360D01*
X10838039Y-16374360D02*
X10828515Y-16355312D01*
X10828515Y-16355312D02*
X10828515Y-16183884D01*
X11009468Y-16374360D02*
X10990420Y-16383884D01*
X10990420Y-16383884D02*
X10952325Y-16383884D01*
X10952325Y-16383884D02*
X10933277Y-16374360D01*
X10933277Y-16374360D02*
X10923753Y-16355312D01*
X10923753Y-16355312D02*
X10923753Y-16279122D01*
X10923753Y-16279122D02*
X10933277Y-16260074D01*
X10933277Y-16260074D02*
X10952325Y-16250550D01*
X10952325Y-16250550D02*
X10990420Y-16250550D01*
X10990420Y-16250550D02*
X11009468Y-16260074D01*
X11009468Y-16260074D02*
X11018992Y-16279122D01*
X11018992Y-16279122D02*
X11018992Y-16298169D01*
X11018992Y-16298169D02*
X10923753Y-16317217D01*
X11095182Y-16374360D02*
X11114230Y-16383884D01*
X11114230Y-16383884D02*
X11152325Y-16383884D01*
X11152325Y-16383884D02*
X11171373Y-16374360D01*
X11171373Y-16374360D02*
X11180896Y-16355312D01*
X11180896Y-16355312D02*
X11180896Y-16345788D01*
X11180896Y-16345788D02*
X11171373Y-16326741D01*
X11171373Y-16326741D02*
X11152325Y-16317217D01*
X11152325Y-16317217D02*
X11123753Y-16317217D01*
X11123753Y-16317217D02*
X11104706Y-16307693D01*
X11104706Y-16307693D02*
X11095182Y-16288646D01*
X11095182Y-16288646D02*
X11095182Y-16279122D01*
X11095182Y-16279122D02*
X11104706Y-16260074D01*
X11104706Y-16260074D02*
X11123753Y-16250550D01*
X11123753Y-16250550D02*
X11152325Y-16250550D01*
X11152325Y-16250550D02*
X11171373Y-16260074D01*
X11247563Y-16460074D02*
X11257087Y-16450550D01*
X11257087Y-16450550D02*
X11276134Y-16421979D01*
X11276134Y-16421979D02*
X11285658Y-16402931D01*
X11285658Y-16402931D02*
X11295182Y-16374360D01*
X11295182Y-16374360D02*
X11304706Y-16326741D01*
X11304706Y-16326741D02*
X11304706Y-16288646D01*
X11304706Y-16288646D02*
X11295182Y-16241027D01*
X11295182Y-16241027D02*
X11285658Y-16212455D01*
X11285658Y-16212455D02*
X11276134Y-16193408D01*
X11276134Y-16193408D02*
X11257087Y-16164836D01*
X11257087Y-16164836D02*
X11247563Y-16155312D01*
X11609468Y-16460074D02*
X11599944Y-16450550D01*
X11599944Y-16450550D02*
X11580896Y-16421979D01*
X11580896Y-16421979D02*
X11571372Y-16402931D01*
X11571372Y-16402931D02*
X11561849Y-16374360D01*
X11561849Y-16374360D02*
X11552325Y-16326741D01*
X11552325Y-16326741D02*
X11552325Y-16288646D01*
X11552325Y-16288646D02*
X11561849Y-16241027D01*
X11561849Y-16241027D02*
X11571372Y-16212455D01*
X11571372Y-16212455D02*
X11580896Y-16193408D01*
X11580896Y-16193408D02*
X11599944Y-16164836D01*
X11599944Y-16164836D02*
X11609468Y-16155312D01*
X11685658Y-16250550D02*
X11685658Y-16383884D01*
X11685658Y-16269598D02*
X11695182Y-16260074D01*
X11695182Y-16260074D02*
X11714230Y-16250550D01*
X11714230Y-16250550D02*
X11742801Y-16250550D01*
X11742801Y-16250550D02*
X11761849Y-16260074D01*
X11761849Y-16260074D02*
X11771372Y-16279122D01*
X11771372Y-16279122D02*
X11771372Y-16383884D01*
X11895182Y-16383884D02*
X11876134Y-16374360D01*
X11876134Y-16374360D02*
X11866611Y-16364836D01*
X11866611Y-16364836D02*
X11857087Y-16345788D01*
X11857087Y-16345788D02*
X11857087Y-16288646D01*
X11857087Y-16288646D02*
X11866611Y-16269598D01*
X11866611Y-16269598D02*
X11876134Y-16260074D01*
X11876134Y-16260074D02*
X11895182Y-16250550D01*
X11895182Y-16250550D02*
X11923753Y-16250550D01*
X11923753Y-16250550D02*
X11942801Y-16260074D01*
X11942801Y-16260074D02*
X11952325Y-16269598D01*
X11952325Y-16269598D02*
X11961849Y-16288646D01*
X11961849Y-16288646D02*
X11961849Y-16345788D01*
X11961849Y-16345788D02*
X11952325Y-16364836D01*
X11952325Y-16364836D02*
X11942801Y-16374360D01*
X11942801Y-16374360D02*
X11923753Y-16383884D01*
X11923753Y-16383884D02*
X11895182Y-16383884D01*
X12018992Y-16250550D02*
X12095182Y-16250550D01*
X12047563Y-16183884D02*
X12047563Y-16355312D01*
X12047563Y-16355312D02*
X12057087Y-16374360D01*
X12057087Y-16374360D02*
X12076134Y-16383884D01*
X12076134Y-16383884D02*
X12095182Y-16383884D01*
X12314230Y-16250550D02*
X12314230Y-16450550D01*
X12314230Y-16260074D02*
X12333277Y-16250550D01*
X12333277Y-16250550D02*
X12371373Y-16250550D01*
X12371373Y-16250550D02*
X12390420Y-16260074D01*
X12390420Y-16260074D02*
X12399944Y-16269598D01*
X12399944Y-16269598D02*
X12409468Y-16288646D01*
X12409468Y-16288646D02*
X12409468Y-16345788D01*
X12409468Y-16345788D02*
X12399944Y-16364836D01*
X12399944Y-16364836D02*
X12390420Y-16374360D01*
X12390420Y-16374360D02*
X12371373Y-16383884D01*
X12371373Y-16383884D02*
X12333277Y-16383884D01*
X12333277Y-16383884D02*
X12314230Y-16374360D01*
X12523753Y-16383884D02*
X12504706Y-16374360D01*
X12504706Y-16374360D02*
X12495182Y-16355312D01*
X12495182Y-16355312D02*
X12495182Y-16183884D01*
X12685658Y-16383884D02*
X12685658Y-16279122D01*
X12685658Y-16279122D02*
X12676134Y-16260074D01*
X12676134Y-16260074D02*
X12657087Y-16250550D01*
X12657087Y-16250550D02*
X12618992Y-16250550D01*
X12618992Y-16250550D02*
X12599944Y-16260074D01*
X12685658Y-16374360D02*
X12666611Y-16383884D01*
X12666611Y-16383884D02*
X12618992Y-16383884D01*
X12618992Y-16383884D02*
X12599944Y-16374360D01*
X12599944Y-16374360D02*
X12590420Y-16355312D01*
X12590420Y-16355312D02*
X12590420Y-16336265D01*
X12590420Y-16336265D02*
X12599944Y-16317217D01*
X12599944Y-16317217D02*
X12618992Y-16307693D01*
X12618992Y-16307693D02*
X12666611Y-16307693D01*
X12666611Y-16307693D02*
X12685658Y-16298169D01*
X12752325Y-16250550D02*
X12828515Y-16250550D01*
X12780896Y-16183884D02*
X12780896Y-16355312D01*
X12780896Y-16355312D02*
X12790420Y-16374360D01*
X12790420Y-16374360D02*
X12809468Y-16383884D01*
X12809468Y-16383884D02*
X12828515Y-16383884D01*
X12971373Y-16374360D02*
X12952325Y-16383884D01*
X12952325Y-16383884D02*
X12914230Y-16383884D01*
X12914230Y-16383884D02*
X12895182Y-16374360D01*
X12895182Y-16374360D02*
X12885658Y-16355312D01*
X12885658Y-16355312D02*
X12885658Y-16279122D01*
X12885658Y-16279122D02*
X12895182Y-16260074D01*
X12895182Y-16260074D02*
X12914230Y-16250550D01*
X12914230Y-16250550D02*
X12952325Y-16250550D01*
X12952325Y-16250550D02*
X12971373Y-16260074D01*
X12971373Y-16260074D02*
X12980896Y-16279122D01*
X12980896Y-16279122D02*
X12980896Y-16298169D01*
X12980896Y-16298169D02*
X12885658Y-16317217D01*
X13152325Y-16383884D02*
X13152325Y-16183884D01*
X13152325Y-16374360D02*
X13133277Y-16383884D01*
X13133277Y-16383884D02*
X13095182Y-16383884D01*
X13095182Y-16383884D02*
X13076134Y-16374360D01*
X13076134Y-16374360D02*
X13066611Y-16364836D01*
X13066611Y-16364836D02*
X13057087Y-16345788D01*
X13057087Y-16345788D02*
X13057087Y-16288646D01*
X13057087Y-16288646D02*
X13066611Y-16269598D01*
X13066611Y-16269598D02*
X13076134Y-16260074D01*
X13076134Y-16260074D02*
X13095182Y-16250550D01*
X13095182Y-16250550D02*
X13133277Y-16250550D01*
X13133277Y-16250550D02*
X13152325Y-16260074D01*
X13228515Y-16460074D02*
X13238039Y-16450550D01*
X13238039Y-16450550D02*
X13257087Y-16421979D01*
X13257087Y-16421979D02*
X13266611Y-16402931D01*
X13266611Y-16402931D02*
X13276134Y-16374360D01*
X13276134Y-16374360D02*
X13285658Y-16326741D01*
X13285658Y-16326741D02*
X13285658Y-16288646D01*
X13285658Y-16288646D02*
X13276134Y-16241027D01*
X13276134Y-16241027D02*
X13266611Y-16212455D01*
X13266611Y-16212455D02*
X13257087Y-16193408D01*
X13257087Y-16193408D02*
X13238039Y-16164836D01*
X13238039Y-16164836D02*
X13228515Y-16155312D01*
D13*
X6472500Y-16562400D02*
G75*
G02*
X6292500Y-16562400I-90000J0D01*
G01*
X6292500Y-16562400D02*
G75*
G02*
X6472500Y-16562400I90000J0D01*
G01*
D11*
X6838039Y-16653884D02*
X6723753Y-16653884D01*
X6780896Y-16653884D02*
X6780896Y-16453884D01*
X6780896Y-16453884D02*
X6761848Y-16482455D01*
X6761848Y-16482455D02*
X6742801Y-16501503D01*
X6742801Y-16501503D02*
X6723753Y-16511027D01*
X6923753Y-16634836D02*
X6933277Y-16644360D01*
X6933277Y-16644360D02*
X6923753Y-16653884D01*
X6923753Y-16653884D02*
X6914229Y-16644360D01*
X6914229Y-16644360D02*
X6923753Y-16634836D01*
X6923753Y-16634836D02*
X6923753Y-16653884D01*
X7047562Y-16539598D02*
X7028515Y-16530074D01*
X7028515Y-16530074D02*
X7018991Y-16520550D01*
X7018991Y-16520550D02*
X7009467Y-16501503D01*
X7009467Y-16501503D02*
X7009467Y-16491979D01*
X7009467Y-16491979D02*
X7018991Y-16472931D01*
X7018991Y-16472931D02*
X7028515Y-16463408D01*
X7028515Y-16463408D02*
X7047562Y-16453884D01*
X7047562Y-16453884D02*
X7085658Y-16453884D01*
X7085658Y-16453884D02*
X7104705Y-16463408D01*
X7104705Y-16463408D02*
X7114229Y-16472931D01*
X7114229Y-16472931D02*
X7123753Y-16491979D01*
X7123753Y-16491979D02*
X7123753Y-16501503D01*
X7123753Y-16501503D02*
X7114229Y-16520550D01*
X7114229Y-16520550D02*
X7104705Y-16530074D01*
X7104705Y-16530074D02*
X7085658Y-16539598D01*
X7085658Y-16539598D02*
X7047562Y-16539598D01*
X7047562Y-16539598D02*
X7028515Y-16549122D01*
X7028515Y-16549122D02*
X7018991Y-16558646D01*
X7018991Y-16558646D02*
X7009467Y-16577693D01*
X7009467Y-16577693D02*
X7009467Y-16615788D01*
X7009467Y-16615788D02*
X7018991Y-16634836D01*
X7018991Y-16634836D02*
X7028515Y-16644360D01*
X7028515Y-16644360D02*
X7047562Y-16653884D01*
X7047562Y-16653884D02*
X7085658Y-16653884D01*
X7085658Y-16653884D02*
X7104705Y-16644360D01*
X7104705Y-16644360D02*
X7114229Y-16634836D01*
X7114229Y-16634836D02*
X7123753Y-16615788D01*
X7123753Y-16615788D02*
X7123753Y-16577693D01*
X7123753Y-16577693D02*
X7114229Y-16558646D01*
X7114229Y-16558646D02*
X7104705Y-16549122D01*
X7104705Y-16549122D02*
X7085658Y-16539598D01*
X7247562Y-16453884D02*
X7266610Y-16453884D01*
X7266610Y-16453884D02*
X7285658Y-16463408D01*
X7285658Y-16463408D02*
X7295182Y-16472931D01*
X7295182Y-16472931D02*
X7304705Y-16491979D01*
X7304705Y-16491979D02*
X7314229Y-16530074D01*
X7314229Y-16530074D02*
X7314229Y-16577693D01*
X7314229Y-16577693D02*
X7304705Y-16615788D01*
X7304705Y-16615788D02*
X7295182Y-16634836D01*
X7295182Y-16634836D02*
X7285658Y-16644360D01*
X7285658Y-16644360D02*
X7266610Y-16653884D01*
X7266610Y-16653884D02*
X7247562Y-16653884D01*
X7247562Y-16653884D02*
X7228515Y-16644360D01*
X7228515Y-16644360D02*
X7218991Y-16634836D01*
X7218991Y-16634836D02*
X7209467Y-16615788D01*
X7209467Y-16615788D02*
X7199943Y-16577693D01*
X7199943Y-16577693D02*
X7199943Y-16530074D01*
X7199943Y-16530074D02*
X7209467Y-16491979D01*
X7209467Y-16491979D02*
X7218991Y-16472931D01*
X7218991Y-16472931D02*
X7228515Y-16463408D01*
X7228515Y-16463408D02*
X7247562Y-16453884D01*
X7438039Y-16453884D02*
X7457086Y-16453884D01*
X7457086Y-16453884D02*
X7476134Y-16463408D01*
X7476134Y-16463408D02*
X7485658Y-16472931D01*
X7485658Y-16472931D02*
X7495182Y-16491979D01*
X7495182Y-16491979D02*
X7504705Y-16530074D01*
X7504705Y-16530074D02*
X7504705Y-16577693D01*
X7504705Y-16577693D02*
X7495182Y-16615788D01*
X7495182Y-16615788D02*
X7485658Y-16634836D01*
X7485658Y-16634836D02*
X7476134Y-16644360D01*
X7476134Y-16644360D02*
X7457086Y-16653884D01*
X7457086Y-16653884D02*
X7438039Y-16653884D01*
X7438039Y-16653884D02*
X7418991Y-16644360D01*
X7418991Y-16644360D02*
X7409467Y-16634836D01*
X7409467Y-16634836D02*
X7399943Y-16615788D01*
X7399943Y-16615788D02*
X7390420Y-16577693D01*
X7390420Y-16577693D02*
X7390420Y-16530074D01*
X7390420Y-16530074D02*
X7399943Y-16491979D01*
X7399943Y-16491979D02*
X7409467Y-16472931D01*
X7409467Y-16472931D02*
X7418991Y-16463408D01*
X7418991Y-16463408D02*
X7438039Y-16453884D01*
X7590420Y-16653884D02*
X7590420Y-16520550D01*
X7590420Y-16539598D02*
X7599943Y-16530074D01*
X7599943Y-16530074D02*
X7618991Y-16520550D01*
X7618991Y-16520550D02*
X7647563Y-16520550D01*
X7647563Y-16520550D02*
X7666610Y-16530074D01*
X7666610Y-16530074D02*
X7676134Y-16549122D01*
X7676134Y-16549122D02*
X7676134Y-16653884D01*
X7676134Y-16549122D02*
X7685658Y-16530074D01*
X7685658Y-16530074D02*
X7704705Y-16520550D01*
X7704705Y-16520550D02*
X7733277Y-16520550D01*
X7733277Y-16520550D02*
X7752324Y-16530074D01*
X7752324Y-16530074D02*
X7761848Y-16549122D01*
X7761848Y-16549122D02*
X7761848Y-16653884D01*
X7857086Y-16653884D02*
X7857086Y-16520550D01*
X7857086Y-16539598D02*
X7866610Y-16530074D01*
X7866610Y-16530074D02*
X7885658Y-16520550D01*
X7885658Y-16520550D02*
X7914229Y-16520550D01*
X7914229Y-16520550D02*
X7933277Y-16530074D01*
X7933277Y-16530074D02*
X7942801Y-16549122D01*
X7942801Y-16549122D02*
X7942801Y-16653884D01*
X7942801Y-16549122D02*
X7952324Y-16530074D01*
X7952324Y-16530074D02*
X7971372Y-16520550D01*
X7971372Y-16520550D02*
X7999943Y-16520550D01*
X7999943Y-16520550D02*
X8018991Y-16530074D01*
X8018991Y-16530074D02*
X8028515Y-16549122D01*
X8028515Y-16549122D02*
X8028515Y-16653884D01*
X8418991Y-16444360D02*
X8247563Y-16701503D01*
X8676134Y-16453884D02*
X8695182Y-16453884D01*
X8695182Y-16453884D02*
X8714229Y-16463408D01*
X8714229Y-16463408D02*
X8723753Y-16472931D01*
X8723753Y-16472931D02*
X8733277Y-16491979D01*
X8733277Y-16491979D02*
X8742801Y-16530074D01*
X8742801Y-16530074D02*
X8742801Y-16577693D01*
X8742801Y-16577693D02*
X8733277Y-16615788D01*
X8733277Y-16615788D02*
X8723753Y-16634836D01*
X8723753Y-16634836D02*
X8714229Y-16644360D01*
X8714229Y-16644360D02*
X8695182Y-16653884D01*
X8695182Y-16653884D02*
X8676134Y-16653884D01*
X8676134Y-16653884D02*
X8657087Y-16644360D01*
X8657087Y-16644360D02*
X8647563Y-16634836D01*
X8647563Y-16634836D02*
X8638039Y-16615788D01*
X8638039Y-16615788D02*
X8628515Y-16577693D01*
X8628515Y-16577693D02*
X8628515Y-16530074D01*
X8628515Y-16530074D02*
X8638039Y-16491979D01*
X8638039Y-16491979D02*
X8647563Y-16472931D01*
X8647563Y-16472931D02*
X8657087Y-16463408D01*
X8657087Y-16463408D02*
X8676134Y-16453884D01*
X8828515Y-16634836D02*
X8838039Y-16644360D01*
X8838039Y-16644360D02*
X8828515Y-16653884D01*
X8828515Y-16653884D02*
X8818991Y-16644360D01*
X8818991Y-16644360D02*
X8828515Y-16634836D01*
X8828515Y-16634836D02*
X8828515Y-16653884D01*
X8961848Y-16453884D02*
X8980896Y-16453884D01*
X8980896Y-16453884D02*
X8999944Y-16463408D01*
X8999944Y-16463408D02*
X9009468Y-16472931D01*
X9009468Y-16472931D02*
X9018991Y-16491979D01*
X9018991Y-16491979D02*
X9028515Y-16530074D01*
X9028515Y-16530074D02*
X9028515Y-16577693D01*
X9028515Y-16577693D02*
X9018991Y-16615788D01*
X9018991Y-16615788D02*
X9009468Y-16634836D01*
X9009468Y-16634836D02*
X8999944Y-16644360D01*
X8999944Y-16644360D02*
X8980896Y-16653884D01*
X8980896Y-16653884D02*
X8961848Y-16653884D01*
X8961848Y-16653884D02*
X8942801Y-16644360D01*
X8942801Y-16644360D02*
X8933277Y-16634836D01*
X8933277Y-16634836D02*
X8923753Y-16615788D01*
X8923753Y-16615788D02*
X8914229Y-16577693D01*
X8914229Y-16577693D02*
X8914229Y-16530074D01*
X8914229Y-16530074D02*
X8923753Y-16491979D01*
X8923753Y-16491979D02*
X8933277Y-16472931D01*
X8933277Y-16472931D02*
X8942801Y-16463408D01*
X8942801Y-16463408D02*
X8961848Y-16453884D01*
X9095182Y-16453884D02*
X9228515Y-16453884D01*
X9228515Y-16453884D02*
X9142801Y-16653884D01*
X9342801Y-16453884D02*
X9361849Y-16453884D01*
X9361849Y-16453884D02*
X9380896Y-16463408D01*
X9380896Y-16463408D02*
X9390420Y-16472931D01*
X9390420Y-16472931D02*
X9399944Y-16491979D01*
X9399944Y-16491979D02*
X9409468Y-16530074D01*
X9409468Y-16530074D02*
X9409468Y-16577693D01*
X9409468Y-16577693D02*
X9399944Y-16615788D01*
X9399944Y-16615788D02*
X9390420Y-16634836D01*
X9390420Y-16634836D02*
X9380896Y-16644360D01*
X9380896Y-16644360D02*
X9361849Y-16653884D01*
X9361849Y-16653884D02*
X9342801Y-16653884D01*
X9342801Y-16653884D02*
X9323753Y-16644360D01*
X9323753Y-16644360D02*
X9314229Y-16634836D01*
X9314229Y-16634836D02*
X9304706Y-16615788D01*
X9304706Y-16615788D02*
X9295182Y-16577693D01*
X9295182Y-16577693D02*
X9295182Y-16530074D01*
X9295182Y-16530074D02*
X9304706Y-16491979D01*
X9304706Y-16491979D02*
X9314229Y-16472931D01*
X9314229Y-16472931D02*
X9323753Y-16463408D01*
X9323753Y-16463408D02*
X9342801Y-16453884D01*
X9504706Y-16653884D02*
X9542801Y-16653884D01*
X9542801Y-16653884D02*
X9561849Y-16644360D01*
X9561849Y-16644360D02*
X9571372Y-16634836D01*
X9571372Y-16634836D02*
X9590420Y-16606265D01*
X9590420Y-16606265D02*
X9599944Y-16568169D01*
X9599944Y-16568169D02*
X9599944Y-16491979D01*
X9599944Y-16491979D02*
X9590420Y-16472931D01*
X9590420Y-16472931D02*
X9580896Y-16463408D01*
X9580896Y-16463408D02*
X9561849Y-16453884D01*
X9561849Y-16453884D02*
X9523753Y-16453884D01*
X9523753Y-16453884D02*
X9504706Y-16463408D01*
X9504706Y-16463408D02*
X9495182Y-16472931D01*
X9495182Y-16472931D02*
X9485658Y-16491979D01*
X9485658Y-16491979D02*
X9485658Y-16539598D01*
X9485658Y-16539598D02*
X9495182Y-16558646D01*
X9495182Y-16558646D02*
X9504706Y-16568169D01*
X9504706Y-16568169D02*
X9523753Y-16577693D01*
X9523753Y-16577693D02*
X9561849Y-16577693D01*
X9561849Y-16577693D02*
X9580896Y-16568169D01*
X9580896Y-16568169D02*
X9590420Y-16558646D01*
X9590420Y-16558646D02*
X9599944Y-16539598D01*
X9676134Y-16453884D02*
X9676134Y-16491979D01*
X9752325Y-16453884D02*
X9752325Y-16491979D01*
X10047563Y-16730074D02*
X10038039Y-16720550D01*
X10038039Y-16720550D02*
X10018991Y-16691979D01*
X10018991Y-16691979D02*
X10009468Y-16672931D01*
X10009468Y-16672931D02*
X9999944Y-16644360D01*
X9999944Y-16644360D02*
X9990420Y-16596741D01*
X9990420Y-16596741D02*
X9990420Y-16558646D01*
X9990420Y-16558646D02*
X9999944Y-16511027D01*
X9999944Y-16511027D02*
X10009468Y-16482455D01*
X10009468Y-16482455D02*
X10018991Y-16463408D01*
X10018991Y-16463408D02*
X10038039Y-16434836D01*
X10038039Y-16434836D02*
X10047563Y-16425312D01*
X10114230Y-16472931D02*
X10123753Y-16463408D01*
X10123753Y-16463408D02*
X10142801Y-16453884D01*
X10142801Y-16453884D02*
X10190420Y-16453884D01*
X10190420Y-16453884D02*
X10209468Y-16463408D01*
X10209468Y-16463408D02*
X10218991Y-16472931D01*
X10218991Y-16472931D02*
X10228515Y-16491979D01*
X10228515Y-16491979D02*
X10228515Y-16511027D01*
X10228515Y-16511027D02*
X10218991Y-16539598D01*
X10218991Y-16539598D02*
X10104706Y-16653884D01*
X10104706Y-16653884D02*
X10228515Y-16653884D01*
X10466611Y-16653884D02*
X10466611Y-16453884D01*
X10552325Y-16653884D02*
X10552325Y-16549122D01*
X10552325Y-16549122D02*
X10542801Y-16530074D01*
X10542801Y-16530074D02*
X10523753Y-16520550D01*
X10523753Y-16520550D02*
X10495182Y-16520550D01*
X10495182Y-16520550D02*
X10476134Y-16530074D01*
X10476134Y-16530074D02*
X10466611Y-16539598D01*
X10676134Y-16653884D02*
X10657087Y-16644360D01*
X10657087Y-16644360D02*
X10647563Y-16634836D01*
X10647563Y-16634836D02*
X10638039Y-16615788D01*
X10638039Y-16615788D02*
X10638039Y-16558646D01*
X10638039Y-16558646D02*
X10647563Y-16539598D01*
X10647563Y-16539598D02*
X10657087Y-16530074D01*
X10657087Y-16530074D02*
X10676134Y-16520550D01*
X10676134Y-16520550D02*
X10704706Y-16520550D01*
X10704706Y-16520550D02*
X10723753Y-16530074D01*
X10723753Y-16530074D02*
X10733277Y-16539598D01*
X10733277Y-16539598D02*
X10742801Y-16558646D01*
X10742801Y-16558646D02*
X10742801Y-16615788D01*
X10742801Y-16615788D02*
X10733277Y-16634836D01*
X10733277Y-16634836D02*
X10723753Y-16644360D01*
X10723753Y-16644360D02*
X10704706Y-16653884D01*
X10704706Y-16653884D02*
X10676134Y-16653884D01*
X10857087Y-16653884D02*
X10838039Y-16644360D01*
X10838039Y-16644360D02*
X10828515Y-16625312D01*
X10828515Y-16625312D02*
X10828515Y-16453884D01*
X11009468Y-16644360D02*
X10990420Y-16653884D01*
X10990420Y-16653884D02*
X10952325Y-16653884D01*
X10952325Y-16653884D02*
X10933277Y-16644360D01*
X10933277Y-16644360D02*
X10923753Y-16625312D01*
X10923753Y-16625312D02*
X10923753Y-16549122D01*
X10923753Y-16549122D02*
X10933277Y-16530074D01*
X10933277Y-16530074D02*
X10952325Y-16520550D01*
X10952325Y-16520550D02*
X10990420Y-16520550D01*
X10990420Y-16520550D02*
X11009468Y-16530074D01*
X11009468Y-16530074D02*
X11018992Y-16549122D01*
X11018992Y-16549122D02*
X11018992Y-16568169D01*
X11018992Y-16568169D02*
X10923753Y-16587217D01*
X11095182Y-16644360D02*
X11114230Y-16653884D01*
X11114230Y-16653884D02*
X11152325Y-16653884D01*
X11152325Y-16653884D02*
X11171373Y-16644360D01*
X11171373Y-16644360D02*
X11180896Y-16625312D01*
X11180896Y-16625312D02*
X11180896Y-16615788D01*
X11180896Y-16615788D02*
X11171373Y-16596741D01*
X11171373Y-16596741D02*
X11152325Y-16587217D01*
X11152325Y-16587217D02*
X11123753Y-16587217D01*
X11123753Y-16587217D02*
X11104706Y-16577693D01*
X11104706Y-16577693D02*
X11095182Y-16558646D01*
X11095182Y-16558646D02*
X11095182Y-16549122D01*
X11095182Y-16549122D02*
X11104706Y-16530074D01*
X11104706Y-16530074D02*
X11123753Y-16520550D01*
X11123753Y-16520550D02*
X11152325Y-16520550D01*
X11152325Y-16520550D02*
X11171373Y-16530074D01*
X11247563Y-16730074D02*
X11257087Y-16720550D01*
X11257087Y-16720550D02*
X11276134Y-16691979D01*
X11276134Y-16691979D02*
X11285658Y-16672931D01*
X11285658Y-16672931D02*
X11295182Y-16644360D01*
X11295182Y-16644360D02*
X11304706Y-16596741D01*
X11304706Y-16596741D02*
X11304706Y-16558646D01*
X11304706Y-16558646D02*
X11295182Y-16511027D01*
X11295182Y-16511027D02*
X11285658Y-16482455D01*
X11285658Y-16482455D02*
X11276134Y-16463408D01*
X11276134Y-16463408D02*
X11257087Y-16434836D01*
X11257087Y-16434836D02*
X11247563Y-16425312D01*
X11609468Y-16730074D02*
X11599944Y-16720550D01*
X11599944Y-16720550D02*
X11580896Y-16691979D01*
X11580896Y-16691979D02*
X11571372Y-16672931D01*
X11571372Y-16672931D02*
X11561849Y-16644360D01*
X11561849Y-16644360D02*
X11552325Y-16596741D01*
X11552325Y-16596741D02*
X11552325Y-16558646D01*
X11552325Y-16558646D02*
X11561849Y-16511027D01*
X11561849Y-16511027D02*
X11571372Y-16482455D01*
X11571372Y-16482455D02*
X11580896Y-16463408D01*
X11580896Y-16463408D02*
X11599944Y-16434836D01*
X11599944Y-16434836D02*
X11609468Y-16425312D01*
X11685658Y-16520550D02*
X11685658Y-16653884D01*
X11685658Y-16539598D02*
X11695182Y-16530074D01*
X11695182Y-16530074D02*
X11714230Y-16520550D01*
X11714230Y-16520550D02*
X11742801Y-16520550D01*
X11742801Y-16520550D02*
X11761849Y-16530074D01*
X11761849Y-16530074D02*
X11771372Y-16549122D01*
X11771372Y-16549122D02*
X11771372Y-16653884D01*
X11895182Y-16653884D02*
X11876134Y-16644360D01*
X11876134Y-16644360D02*
X11866611Y-16634836D01*
X11866611Y-16634836D02*
X11857087Y-16615788D01*
X11857087Y-16615788D02*
X11857087Y-16558646D01*
X11857087Y-16558646D02*
X11866611Y-16539598D01*
X11866611Y-16539598D02*
X11876134Y-16530074D01*
X11876134Y-16530074D02*
X11895182Y-16520550D01*
X11895182Y-16520550D02*
X11923753Y-16520550D01*
X11923753Y-16520550D02*
X11942801Y-16530074D01*
X11942801Y-16530074D02*
X11952325Y-16539598D01*
X11952325Y-16539598D02*
X11961849Y-16558646D01*
X11961849Y-16558646D02*
X11961849Y-16615788D01*
X11961849Y-16615788D02*
X11952325Y-16634836D01*
X11952325Y-16634836D02*
X11942801Y-16644360D01*
X11942801Y-16644360D02*
X11923753Y-16653884D01*
X11923753Y-16653884D02*
X11895182Y-16653884D01*
X12018992Y-16520550D02*
X12095182Y-16520550D01*
X12047563Y-16453884D02*
X12047563Y-16625312D01*
X12047563Y-16625312D02*
X12057087Y-16644360D01*
X12057087Y-16644360D02*
X12076134Y-16653884D01*
X12076134Y-16653884D02*
X12095182Y-16653884D01*
X12314230Y-16520550D02*
X12314230Y-16720550D01*
X12314230Y-16530074D02*
X12333277Y-16520550D01*
X12333277Y-16520550D02*
X12371373Y-16520550D01*
X12371373Y-16520550D02*
X12390420Y-16530074D01*
X12390420Y-16530074D02*
X12399944Y-16539598D01*
X12399944Y-16539598D02*
X12409468Y-16558646D01*
X12409468Y-16558646D02*
X12409468Y-16615788D01*
X12409468Y-16615788D02*
X12399944Y-16634836D01*
X12399944Y-16634836D02*
X12390420Y-16644360D01*
X12390420Y-16644360D02*
X12371373Y-16653884D01*
X12371373Y-16653884D02*
X12333277Y-16653884D01*
X12333277Y-16653884D02*
X12314230Y-16644360D01*
X12523753Y-16653884D02*
X12504706Y-16644360D01*
X12504706Y-16644360D02*
X12495182Y-16625312D01*
X12495182Y-16625312D02*
X12495182Y-16453884D01*
X12685658Y-16653884D02*
X12685658Y-16549122D01*
X12685658Y-16549122D02*
X12676134Y-16530074D01*
X12676134Y-16530074D02*
X12657087Y-16520550D01*
X12657087Y-16520550D02*
X12618992Y-16520550D01*
X12618992Y-16520550D02*
X12599944Y-16530074D01*
X12685658Y-16644360D02*
X12666611Y-16653884D01*
X12666611Y-16653884D02*
X12618992Y-16653884D01*
X12618992Y-16653884D02*
X12599944Y-16644360D01*
X12599944Y-16644360D02*
X12590420Y-16625312D01*
X12590420Y-16625312D02*
X12590420Y-16606265D01*
X12590420Y-16606265D02*
X12599944Y-16587217D01*
X12599944Y-16587217D02*
X12618992Y-16577693D01*
X12618992Y-16577693D02*
X12666611Y-16577693D01*
X12666611Y-16577693D02*
X12685658Y-16568169D01*
X12752325Y-16520550D02*
X12828515Y-16520550D01*
X12780896Y-16453884D02*
X12780896Y-16625312D01*
X12780896Y-16625312D02*
X12790420Y-16644360D01*
X12790420Y-16644360D02*
X12809468Y-16653884D01*
X12809468Y-16653884D02*
X12828515Y-16653884D01*
X12971373Y-16644360D02*
X12952325Y-16653884D01*
X12952325Y-16653884D02*
X12914230Y-16653884D01*
X12914230Y-16653884D02*
X12895182Y-16644360D01*
X12895182Y-16644360D02*
X12885658Y-16625312D01*
X12885658Y-16625312D02*
X12885658Y-16549122D01*
X12885658Y-16549122D02*
X12895182Y-16530074D01*
X12895182Y-16530074D02*
X12914230Y-16520550D01*
X12914230Y-16520550D02*
X12952325Y-16520550D01*
X12952325Y-16520550D02*
X12971373Y-16530074D01*
X12971373Y-16530074D02*
X12980896Y-16549122D01*
X12980896Y-16549122D02*
X12980896Y-16568169D01*
X12980896Y-16568169D02*
X12885658Y-16587217D01*
X13152325Y-16653884D02*
X13152325Y-16453884D01*
X13152325Y-16644360D02*
X13133277Y-16653884D01*
X13133277Y-16653884D02*
X13095182Y-16653884D01*
X13095182Y-16653884D02*
X13076134Y-16644360D01*
X13076134Y-16644360D02*
X13066611Y-16634836D01*
X13066611Y-16634836D02*
X13057087Y-16615788D01*
X13057087Y-16615788D02*
X13057087Y-16558646D01*
X13057087Y-16558646D02*
X13066611Y-16539598D01*
X13066611Y-16539598D02*
X13076134Y-16530074D01*
X13076134Y-16530074D02*
X13095182Y-16520550D01*
X13095182Y-16520550D02*
X13133277Y-16520550D01*
X13133277Y-16520550D02*
X13152325Y-16530074D01*
X13228515Y-16730074D02*
X13238039Y-16720550D01*
X13238039Y-16720550D02*
X13257087Y-16691979D01*
X13257087Y-16691979D02*
X13266611Y-16672931D01*
X13266611Y-16672931D02*
X13276134Y-16644360D01*
X13276134Y-16644360D02*
X13285658Y-16596741D01*
X13285658Y-16596741D02*
X13285658Y-16558646D01*
X13285658Y-16558646D02*
X13276134Y-16511027D01*
X13276134Y-16511027D02*
X13266611Y-16482455D01*
X13266611Y-16482455D02*
X13257087Y-16463408D01*
X13257087Y-16463408D02*
X13238039Y-16434836D01*
X13238039Y-16434836D02*
X13228515Y-16425312D01*
X6372500Y-16762400D02*
X6372500Y-16962400D01*
X6272500Y-16862400D02*
X6472500Y-16862400D01*
X6723753Y-16772931D02*
X6733277Y-16763408D01*
X6733277Y-16763408D02*
X6752324Y-16753884D01*
X6752324Y-16753884D02*
X6799943Y-16753884D01*
X6799943Y-16753884D02*
X6818991Y-16763408D01*
X6818991Y-16763408D02*
X6828515Y-16772931D01*
X6828515Y-16772931D02*
X6838039Y-16791979D01*
X6838039Y-16791979D02*
X6838039Y-16811027D01*
X6838039Y-16811027D02*
X6828515Y-16839598D01*
X6828515Y-16839598D02*
X6714229Y-16953884D01*
X6714229Y-16953884D02*
X6838039Y-16953884D01*
X6923753Y-16934836D02*
X6933277Y-16944360D01*
X6933277Y-16944360D02*
X6923753Y-16953884D01*
X6923753Y-16953884D02*
X6914229Y-16944360D01*
X6914229Y-16944360D02*
X6923753Y-16934836D01*
X6923753Y-16934836D02*
X6923753Y-16953884D01*
X6999943Y-16753884D02*
X7133277Y-16753884D01*
X7133277Y-16753884D02*
X7047562Y-16953884D01*
X7247562Y-16753884D02*
X7266610Y-16753884D01*
X7266610Y-16753884D02*
X7285658Y-16763408D01*
X7285658Y-16763408D02*
X7295182Y-16772931D01*
X7295182Y-16772931D02*
X7304705Y-16791979D01*
X7304705Y-16791979D02*
X7314229Y-16830074D01*
X7314229Y-16830074D02*
X7314229Y-16877693D01*
X7314229Y-16877693D02*
X7304705Y-16915789D01*
X7304705Y-16915789D02*
X7295182Y-16934836D01*
X7295182Y-16934836D02*
X7285658Y-16944360D01*
X7285658Y-16944360D02*
X7266610Y-16953884D01*
X7266610Y-16953884D02*
X7247562Y-16953884D01*
X7247562Y-16953884D02*
X7228515Y-16944360D01*
X7228515Y-16944360D02*
X7218991Y-16934836D01*
X7218991Y-16934836D02*
X7209467Y-16915789D01*
X7209467Y-16915789D02*
X7199943Y-16877693D01*
X7199943Y-16877693D02*
X7199943Y-16830074D01*
X7199943Y-16830074D02*
X7209467Y-16791979D01*
X7209467Y-16791979D02*
X7218991Y-16772931D01*
X7218991Y-16772931D02*
X7228515Y-16763408D01*
X7228515Y-16763408D02*
X7247562Y-16753884D01*
X7438039Y-16753884D02*
X7457086Y-16753884D01*
X7457086Y-16753884D02*
X7476134Y-16763408D01*
X7476134Y-16763408D02*
X7485658Y-16772931D01*
X7485658Y-16772931D02*
X7495182Y-16791979D01*
X7495182Y-16791979D02*
X7504705Y-16830074D01*
X7504705Y-16830074D02*
X7504705Y-16877693D01*
X7504705Y-16877693D02*
X7495182Y-16915789D01*
X7495182Y-16915789D02*
X7485658Y-16934836D01*
X7485658Y-16934836D02*
X7476134Y-16944360D01*
X7476134Y-16944360D02*
X7457086Y-16953884D01*
X7457086Y-16953884D02*
X7438039Y-16953884D01*
X7438039Y-16953884D02*
X7418991Y-16944360D01*
X7418991Y-16944360D02*
X7409467Y-16934836D01*
X7409467Y-16934836D02*
X7399943Y-16915789D01*
X7399943Y-16915789D02*
X7390420Y-16877693D01*
X7390420Y-16877693D02*
X7390420Y-16830074D01*
X7390420Y-16830074D02*
X7399943Y-16791979D01*
X7399943Y-16791979D02*
X7409467Y-16772931D01*
X7409467Y-16772931D02*
X7418991Y-16763408D01*
X7418991Y-16763408D02*
X7438039Y-16753884D01*
X7590420Y-16953884D02*
X7590420Y-16820550D01*
X7590420Y-16839598D02*
X7599943Y-16830074D01*
X7599943Y-16830074D02*
X7618991Y-16820550D01*
X7618991Y-16820550D02*
X7647563Y-16820550D01*
X7647563Y-16820550D02*
X7666610Y-16830074D01*
X7666610Y-16830074D02*
X7676134Y-16849122D01*
X7676134Y-16849122D02*
X7676134Y-16953884D01*
X7676134Y-16849122D02*
X7685658Y-16830074D01*
X7685658Y-16830074D02*
X7704705Y-16820550D01*
X7704705Y-16820550D02*
X7733277Y-16820550D01*
X7733277Y-16820550D02*
X7752324Y-16830074D01*
X7752324Y-16830074D02*
X7761848Y-16849122D01*
X7761848Y-16849122D02*
X7761848Y-16953884D01*
X7857086Y-16953884D02*
X7857086Y-16820550D01*
X7857086Y-16839598D02*
X7866610Y-16830074D01*
X7866610Y-16830074D02*
X7885658Y-16820550D01*
X7885658Y-16820550D02*
X7914229Y-16820550D01*
X7914229Y-16820550D02*
X7933277Y-16830074D01*
X7933277Y-16830074D02*
X7942801Y-16849122D01*
X7942801Y-16849122D02*
X7942801Y-16953884D01*
X7942801Y-16849122D02*
X7952324Y-16830074D01*
X7952324Y-16830074D02*
X7971372Y-16820550D01*
X7971372Y-16820550D02*
X7999943Y-16820550D01*
X7999943Y-16820550D02*
X8018991Y-16830074D01*
X8018991Y-16830074D02*
X8028515Y-16849122D01*
X8028515Y-16849122D02*
X8028515Y-16953884D01*
X8418991Y-16744360D02*
X8247563Y-17001503D01*
X8676134Y-16753884D02*
X8695182Y-16753884D01*
X8695182Y-16753884D02*
X8714229Y-16763408D01*
X8714229Y-16763408D02*
X8723753Y-16772931D01*
X8723753Y-16772931D02*
X8733277Y-16791979D01*
X8733277Y-16791979D02*
X8742801Y-16830074D01*
X8742801Y-16830074D02*
X8742801Y-16877693D01*
X8742801Y-16877693D02*
X8733277Y-16915789D01*
X8733277Y-16915789D02*
X8723753Y-16934836D01*
X8723753Y-16934836D02*
X8714229Y-16944360D01*
X8714229Y-16944360D02*
X8695182Y-16953884D01*
X8695182Y-16953884D02*
X8676134Y-16953884D01*
X8676134Y-16953884D02*
X8657087Y-16944360D01*
X8657087Y-16944360D02*
X8647563Y-16934836D01*
X8647563Y-16934836D02*
X8638039Y-16915789D01*
X8638039Y-16915789D02*
X8628515Y-16877693D01*
X8628515Y-16877693D02*
X8628515Y-16830074D01*
X8628515Y-16830074D02*
X8638039Y-16791979D01*
X8638039Y-16791979D02*
X8647563Y-16772931D01*
X8647563Y-16772931D02*
X8657087Y-16763408D01*
X8657087Y-16763408D02*
X8676134Y-16753884D01*
X8828515Y-16934836D02*
X8838039Y-16944360D01*
X8838039Y-16944360D02*
X8828515Y-16953884D01*
X8828515Y-16953884D02*
X8818991Y-16944360D01*
X8818991Y-16944360D02*
X8828515Y-16934836D01*
X8828515Y-16934836D02*
X8828515Y-16953884D01*
X9028515Y-16953884D02*
X8914229Y-16953884D01*
X8971372Y-16953884D02*
X8971372Y-16753884D01*
X8971372Y-16753884D02*
X8952325Y-16782455D01*
X8952325Y-16782455D02*
X8933277Y-16801503D01*
X8933277Y-16801503D02*
X8914229Y-16811027D01*
X9152325Y-16753884D02*
X9171372Y-16753884D01*
X9171372Y-16753884D02*
X9190420Y-16763408D01*
X9190420Y-16763408D02*
X9199944Y-16772931D01*
X9199944Y-16772931D02*
X9209468Y-16791979D01*
X9209468Y-16791979D02*
X9218991Y-16830074D01*
X9218991Y-16830074D02*
X9218991Y-16877693D01*
X9218991Y-16877693D02*
X9209468Y-16915789D01*
X9209468Y-16915789D02*
X9199944Y-16934836D01*
X9199944Y-16934836D02*
X9190420Y-16944360D01*
X9190420Y-16944360D02*
X9171372Y-16953884D01*
X9171372Y-16953884D02*
X9152325Y-16953884D01*
X9152325Y-16953884D02*
X9133277Y-16944360D01*
X9133277Y-16944360D02*
X9123753Y-16934836D01*
X9123753Y-16934836D02*
X9114229Y-16915789D01*
X9114229Y-16915789D02*
X9104706Y-16877693D01*
X9104706Y-16877693D02*
X9104706Y-16830074D01*
X9104706Y-16830074D02*
X9114229Y-16791979D01*
X9114229Y-16791979D02*
X9123753Y-16772931D01*
X9123753Y-16772931D02*
X9133277Y-16763408D01*
X9133277Y-16763408D02*
X9152325Y-16753884D01*
X9390420Y-16753884D02*
X9352325Y-16753884D01*
X9352325Y-16753884D02*
X9333277Y-16763408D01*
X9333277Y-16763408D02*
X9323753Y-16772931D01*
X9323753Y-16772931D02*
X9304706Y-16801503D01*
X9304706Y-16801503D02*
X9295182Y-16839598D01*
X9295182Y-16839598D02*
X9295182Y-16915789D01*
X9295182Y-16915789D02*
X9304706Y-16934836D01*
X9304706Y-16934836D02*
X9314229Y-16944360D01*
X9314229Y-16944360D02*
X9333277Y-16953884D01*
X9333277Y-16953884D02*
X9371372Y-16953884D01*
X9371372Y-16953884D02*
X9390420Y-16944360D01*
X9390420Y-16944360D02*
X9399944Y-16934836D01*
X9399944Y-16934836D02*
X9409468Y-16915789D01*
X9409468Y-16915789D02*
X9409468Y-16868170D01*
X9409468Y-16868170D02*
X9399944Y-16849122D01*
X9399944Y-16849122D02*
X9390420Y-16839598D01*
X9390420Y-16839598D02*
X9371372Y-16830074D01*
X9371372Y-16830074D02*
X9333277Y-16830074D01*
X9333277Y-16830074D02*
X9314229Y-16839598D01*
X9314229Y-16839598D02*
X9304706Y-16849122D01*
X9304706Y-16849122D02*
X9295182Y-16868170D01*
X9476134Y-16753884D02*
X9599944Y-16753884D01*
X9599944Y-16753884D02*
X9533277Y-16830074D01*
X9533277Y-16830074D02*
X9561849Y-16830074D01*
X9561849Y-16830074D02*
X9580896Y-16839598D01*
X9580896Y-16839598D02*
X9590420Y-16849122D01*
X9590420Y-16849122D02*
X9599944Y-16868170D01*
X9599944Y-16868170D02*
X9599944Y-16915789D01*
X9599944Y-16915789D02*
X9590420Y-16934836D01*
X9590420Y-16934836D02*
X9580896Y-16944360D01*
X9580896Y-16944360D02*
X9561849Y-16953884D01*
X9561849Y-16953884D02*
X9504706Y-16953884D01*
X9504706Y-16953884D02*
X9485658Y-16944360D01*
X9485658Y-16944360D02*
X9476134Y-16934836D01*
X9676134Y-16753884D02*
X9676134Y-16791979D01*
X9752325Y-16753884D02*
X9752325Y-16791979D01*
X10047563Y-17030074D02*
X10038039Y-17020550D01*
X10038039Y-17020550D02*
X10018991Y-16991979D01*
X10018991Y-16991979D02*
X10009468Y-16972931D01*
X10009468Y-16972931D02*
X9999944Y-16944360D01*
X9999944Y-16944360D02*
X9990420Y-16896741D01*
X9990420Y-16896741D02*
X9990420Y-16858646D01*
X9990420Y-16858646D02*
X9999944Y-16811027D01*
X9999944Y-16811027D02*
X10009468Y-16782455D01*
X10009468Y-16782455D02*
X10018991Y-16763408D01*
X10018991Y-16763408D02*
X10038039Y-16734836D01*
X10038039Y-16734836D02*
X10047563Y-16725312D01*
X10209468Y-16820550D02*
X10209468Y-16953884D01*
X10161849Y-16744360D02*
X10114230Y-16887217D01*
X10114230Y-16887217D02*
X10238039Y-16887217D01*
X10466611Y-16953884D02*
X10466611Y-16753884D01*
X10552325Y-16953884D02*
X10552325Y-16849122D01*
X10552325Y-16849122D02*
X10542801Y-16830074D01*
X10542801Y-16830074D02*
X10523753Y-16820550D01*
X10523753Y-16820550D02*
X10495182Y-16820550D01*
X10495182Y-16820550D02*
X10476134Y-16830074D01*
X10476134Y-16830074D02*
X10466611Y-16839598D01*
X10676134Y-16953884D02*
X10657087Y-16944360D01*
X10657087Y-16944360D02*
X10647563Y-16934836D01*
X10647563Y-16934836D02*
X10638039Y-16915789D01*
X10638039Y-16915789D02*
X10638039Y-16858646D01*
X10638039Y-16858646D02*
X10647563Y-16839598D01*
X10647563Y-16839598D02*
X10657087Y-16830074D01*
X10657087Y-16830074D02*
X10676134Y-16820550D01*
X10676134Y-16820550D02*
X10704706Y-16820550D01*
X10704706Y-16820550D02*
X10723753Y-16830074D01*
X10723753Y-16830074D02*
X10733277Y-16839598D01*
X10733277Y-16839598D02*
X10742801Y-16858646D01*
X10742801Y-16858646D02*
X10742801Y-16915789D01*
X10742801Y-16915789D02*
X10733277Y-16934836D01*
X10733277Y-16934836D02*
X10723753Y-16944360D01*
X10723753Y-16944360D02*
X10704706Y-16953884D01*
X10704706Y-16953884D02*
X10676134Y-16953884D01*
X10857087Y-16953884D02*
X10838039Y-16944360D01*
X10838039Y-16944360D02*
X10828515Y-16925312D01*
X10828515Y-16925312D02*
X10828515Y-16753884D01*
X11009468Y-16944360D02*
X10990420Y-16953884D01*
X10990420Y-16953884D02*
X10952325Y-16953884D01*
X10952325Y-16953884D02*
X10933277Y-16944360D01*
X10933277Y-16944360D02*
X10923753Y-16925312D01*
X10923753Y-16925312D02*
X10923753Y-16849122D01*
X10923753Y-16849122D02*
X10933277Y-16830074D01*
X10933277Y-16830074D02*
X10952325Y-16820550D01*
X10952325Y-16820550D02*
X10990420Y-16820550D01*
X10990420Y-16820550D02*
X11009468Y-16830074D01*
X11009468Y-16830074D02*
X11018992Y-16849122D01*
X11018992Y-16849122D02*
X11018992Y-16868170D01*
X11018992Y-16868170D02*
X10923753Y-16887217D01*
X11095182Y-16944360D02*
X11114230Y-16953884D01*
X11114230Y-16953884D02*
X11152325Y-16953884D01*
X11152325Y-16953884D02*
X11171373Y-16944360D01*
X11171373Y-16944360D02*
X11180896Y-16925312D01*
X11180896Y-16925312D02*
X11180896Y-16915789D01*
X11180896Y-16915789D02*
X11171373Y-16896741D01*
X11171373Y-16896741D02*
X11152325Y-16887217D01*
X11152325Y-16887217D02*
X11123753Y-16887217D01*
X11123753Y-16887217D02*
X11104706Y-16877693D01*
X11104706Y-16877693D02*
X11095182Y-16858646D01*
X11095182Y-16858646D02*
X11095182Y-16849122D01*
X11095182Y-16849122D02*
X11104706Y-16830074D01*
X11104706Y-16830074D02*
X11123753Y-16820550D01*
X11123753Y-16820550D02*
X11152325Y-16820550D01*
X11152325Y-16820550D02*
X11171373Y-16830074D01*
X11247563Y-17030074D02*
X11257087Y-17020550D01*
X11257087Y-17020550D02*
X11276134Y-16991979D01*
X11276134Y-16991979D02*
X11285658Y-16972931D01*
X11285658Y-16972931D02*
X11295182Y-16944360D01*
X11295182Y-16944360D02*
X11304706Y-16896741D01*
X11304706Y-16896741D02*
X11304706Y-16858646D01*
X11304706Y-16858646D02*
X11295182Y-16811027D01*
X11295182Y-16811027D02*
X11285658Y-16782455D01*
X11285658Y-16782455D02*
X11276134Y-16763408D01*
X11276134Y-16763408D02*
X11257087Y-16734836D01*
X11257087Y-16734836D02*
X11247563Y-16725312D01*
X11609468Y-17030074D02*
X11599944Y-17020550D01*
X11599944Y-17020550D02*
X11580896Y-16991979D01*
X11580896Y-16991979D02*
X11571372Y-16972931D01*
X11571372Y-16972931D02*
X11561849Y-16944360D01*
X11561849Y-16944360D02*
X11552325Y-16896741D01*
X11552325Y-16896741D02*
X11552325Y-16858646D01*
X11552325Y-16858646D02*
X11561849Y-16811027D01*
X11561849Y-16811027D02*
X11571372Y-16782455D01*
X11571372Y-16782455D02*
X11580896Y-16763408D01*
X11580896Y-16763408D02*
X11599944Y-16734836D01*
X11599944Y-16734836D02*
X11609468Y-16725312D01*
X11685658Y-16820550D02*
X11685658Y-16953884D01*
X11685658Y-16839598D02*
X11695182Y-16830074D01*
X11695182Y-16830074D02*
X11714230Y-16820550D01*
X11714230Y-16820550D02*
X11742801Y-16820550D01*
X11742801Y-16820550D02*
X11761849Y-16830074D01*
X11761849Y-16830074D02*
X11771372Y-16849122D01*
X11771372Y-16849122D02*
X11771372Y-16953884D01*
X11895182Y-16953884D02*
X11876134Y-16944360D01*
X11876134Y-16944360D02*
X11866611Y-16934836D01*
X11866611Y-16934836D02*
X11857087Y-16915789D01*
X11857087Y-16915789D02*
X11857087Y-16858646D01*
X11857087Y-16858646D02*
X11866611Y-16839598D01*
X11866611Y-16839598D02*
X11876134Y-16830074D01*
X11876134Y-16830074D02*
X11895182Y-16820550D01*
X11895182Y-16820550D02*
X11923753Y-16820550D01*
X11923753Y-16820550D02*
X11942801Y-16830074D01*
X11942801Y-16830074D02*
X11952325Y-16839598D01*
X11952325Y-16839598D02*
X11961849Y-16858646D01*
X11961849Y-16858646D02*
X11961849Y-16915789D01*
X11961849Y-16915789D02*
X11952325Y-16934836D01*
X11952325Y-16934836D02*
X11942801Y-16944360D01*
X11942801Y-16944360D02*
X11923753Y-16953884D01*
X11923753Y-16953884D02*
X11895182Y-16953884D01*
X12018992Y-16820550D02*
X12095182Y-16820550D01*
X12047563Y-16753884D02*
X12047563Y-16925312D01*
X12047563Y-16925312D02*
X12057087Y-16944360D01*
X12057087Y-16944360D02*
X12076134Y-16953884D01*
X12076134Y-16953884D02*
X12095182Y-16953884D01*
X12314230Y-16820550D02*
X12314230Y-17020550D01*
X12314230Y-16830074D02*
X12333277Y-16820550D01*
X12333277Y-16820550D02*
X12371373Y-16820550D01*
X12371373Y-16820550D02*
X12390420Y-16830074D01*
X12390420Y-16830074D02*
X12399944Y-16839598D01*
X12399944Y-16839598D02*
X12409468Y-16858646D01*
X12409468Y-16858646D02*
X12409468Y-16915789D01*
X12409468Y-16915789D02*
X12399944Y-16934836D01*
X12399944Y-16934836D02*
X12390420Y-16944360D01*
X12390420Y-16944360D02*
X12371373Y-16953884D01*
X12371373Y-16953884D02*
X12333277Y-16953884D01*
X12333277Y-16953884D02*
X12314230Y-16944360D01*
X12523753Y-16953884D02*
X12504706Y-16944360D01*
X12504706Y-16944360D02*
X12495182Y-16925312D01*
X12495182Y-16925312D02*
X12495182Y-16753884D01*
X12685658Y-16953884D02*
X12685658Y-16849122D01*
X12685658Y-16849122D02*
X12676134Y-16830074D01*
X12676134Y-16830074D02*
X12657087Y-16820550D01*
X12657087Y-16820550D02*
X12618992Y-16820550D01*
X12618992Y-16820550D02*
X12599944Y-16830074D01*
X12685658Y-16944360D02*
X12666611Y-16953884D01*
X12666611Y-16953884D02*
X12618992Y-16953884D01*
X12618992Y-16953884D02*
X12599944Y-16944360D01*
X12599944Y-16944360D02*
X12590420Y-16925312D01*
X12590420Y-16925312D02*
X12590420Y-16906265D01*
X12590420Y-16906265D02*
X12599944Y-16887217D01*
X12599944Y-16887217D02*
X12618992Y-16877693D01*
X12618992Y-16877693D02*
X12666611Y-16877693D01*
X12666611Y-16877693D02*
X12685658Y-16868170D01*
X12752325Y-16820550D02*
X12828515Y-16820550D01*
X12780896Y-16753884D02*
X12780896Y-16925312D01*
X12780896Y-16925312D02*
X12790420Y-16944360D01*
X12790420Y-16944360D02*
X12809468Y-16953884D01*
X12809468Y-16953884D02*
X12828515Y-16953884D01*
X12971373Y-16944360D02*
X12952325Y-16953884D01*
X12952325Y-16953884D02*
X12914230Y-16953884D01*
X12914230Y-16953884D02*
X12895182Y-16944360D01*
X12895182Y-16944360D02*
X12885658Y-16925312D01*
X12885658Y-16925312D02*
X12885658Y-16849122D01*
X12885658Y-16849122D02*
X12895182Y-16830074D01*
X12895182Y-16830074D02*
X12914230Y-16820550D01*
X12914230Y-16820550D02*
X12952325Y-16820550D01*
X12952325Y-16820550D02*
X12971373Y-16830074D01*
X12971373Y-16830074D02*
X12980896Y-16849122D01*
X12980896Y-16849122D02*
X12980896Y-16868170D01*
X12980896Y-16868170D02*
X12885658Y-16887217D01*
X13152325Y-16953884D02*
X13152325Y-16753884D01*
X13152325Y-16944360D02*
X13133277Y-16953884D01*
X13133277Y-16953884D02*
X13095182Y-16953884D01*
X13095182Y-16953884D02*
X13076134Y-16944360D01*
X13076134Y-16944360D02*
X13066611Y-16934836D01*
X13066611Y-16934836D02*
X13057087Y-16915789D01*
X13057087Y-16915789D02*
X13057087Y-16858646D01*
X13057087Y-16858646D02*
X13066611Y-16839598D01*
X13066611Y-16839598D02*
X13076134Y-16830074D01*
X13076134Y-16830074D02*
X13095182Y-16820550D01*
X13095182Y-16820550D02*
X13133277Y-16820550D01*
X13133277Y-16820550D02*
X13152325Y-16830074D01*
X13228515Y-17030074D02*
X13238039Y-17020550D01*
X13238039Y-17020550D02*
X13257087Y-16991979D01*
X13257087Y-16991979D02*
X13266611Y-16972931D01*
X13266611Y-16972931D02*
X13276134Y-16944360D01*
X13276134Y-16944360D02*
X13285658Y-16896741D01*
X13285658Y-16896741D02*
X13285658Y-16858646D01*
X13285658Y-16858646D02*
X13276134Y-16811027D01*
X13276134Y-16811027D02*
X13266611Y-16782455D01*
X13266611Y-16782455D02*
X13257087Y-16763408D01*
X13257087Y-16763408D02*
X13238039Y-16734836D01*
X13238039Y-16734836D02*
X13228515Y-16725312D01*
M02*
