G04 #@! TF.GenerationSoftware,KiCad,Pcbnew,8.0.0*
G04 #@! TF.CreationDate,2024-03-08T17:43:01-03:00*
G04 #@! TF.ProjectId,usbflashprog,75736266-6c61-4736-9870-726f672e6b69,v0.3.0 rev.A*
G04 #@! TF.SameCoordinates,Original*
G04 #@! TF.FileFunction,Soldermask,Top*
G04 #@! TF.FilePolarity,Negative*
%FSLAX46Y46*%
G04 Gerber Fmt 4.6, Leading zero omitted, Abs format (unit mm)*
G04 Created by KiCad (PCBNEW 8.0.0) date 2024-03-08 17:43:01*
%MOMM*%
%LPD*%
G01*
G04 APERTURE LIST*
%ADD10R,2.500000X2.500000*%
%ADD11R,1.500000X1.500000*%
%ADD12O,1.500000X1.500000*%
%ADD13R,1.600000X1.600000*%
%ADD14O,1.600000X1.600000*%
%ADD15C,1.400000*%
%ADD16O,1.400000X1.400000*%
%ADD17C,1.600000*%
%ADD18R,1.800000X1.800000*%
%ADD19C,1.800000*%
%ADD20C,1.500000*%
%ADD21R,2.000000X1.905000*%
%ADD22O,2.000000X1.905000*%
%ADD23C,2.700000*%
%ADD24O,1.800000X1.800000*%
%ADD25O,1.700000X1.700000*%
%ADD26R,1.700000X3.500000*%
%ADD27R,1.700000X1.700000*%
%ADD28R,3.500000X1.700000*%
%ADD29C,2.600000*%
%ADD30R,5.000000X3.500000*%
G04 APERTURE END LIST*
D10*
X145420000Y-150124000D03*
D11*
X193680000Y-79009000D03*
D12*
X193680000Y-71389000D03*
D13*
X178455000Y-100469000D03*
D14*
X180995000Y-100469000D03*
X183535000Y-100469000D03*
X186075000Y-100469000D03*
X188615000Y-100469000D03*
X191155000Y-100469000D03*
X193695000Y-100469000D03*
X196235000Y-100469000D03*
X196235000Y-92849000D03*
X193695000Y-92849000D03*
X191155000Y-92849000D03*
X188615000Y-92849000D03*
X186075000Y-92849000D03*
X183535000Y-92849000D03*
X180995000Y-92849000D03*
X178455000Y-92849000D03*
D11*
X191140000Y-71379000D03*
D12*
X191140000Y-78999000D03*
D15*
X161930000Y-128534000D03*
D16*
X154310000Y-128534000D03*
D15*
X154310000Y-133614000D03*
D16*
X161930000Y-133614000D03*
D13*
X189870000Y-148894000D03*
D17*
X189870000Y-151394000D03*
D18*
X177170000Y-151394000D03*
D19*
X177170000Y-148854000D03*
D15*
X126370000Y-141234000D03*
D16*
X133990000Y-141234000D03*
D10*
X73665000Y-151394000D03*
D15*
X183520000Y-79004000D03*
D16*
X183520000Y-71384000D03*
D15*
X126370000Y-136154000D03*
D16*
X133990000Y-136154000D03*
D17*
X126370000Y-106869000D03*
X126370000Y-111869000D03*
D15*
X137800000Y-131074000D03*
D16*
X145420000Y-131074000D03*
D11*
X122560000Y-77734000D03*
D20*
X122560000Y-75194000D03*
X122560000Y-72654000D03*
D21*
X117155000Y-134884000D03*
D22*
X117155000Y-132344000D03*
X117155000Y-129804000D03*
D17*
X200030000Y-124724000D03*
D14*
X200030000Y-134884000D03*
D15*
X87632991Y-87779000D03*
D16*
X95252991Y-87779000D03*
D15*
X133990000Y-143774000D03*
D16*
X126370000Y-143774000D03*
D17*
X120000000Y-57494000D03*
X120000000Y-62494000D03*
D15*
X99700000Y-148590000D03*
D16*
X92080000Y-148590000D03*
D11*
X181870000Y-57414000D03*
D20*
X181870000Y-59954000D03*
X181870000Y-62494000D03*
D11*
X116210000Y-71379000D03*
D12*
X116210000Y-78999000D03*
D11*
X169190000Y-72654000D03*
D20*
X169190000Y-75194000D03*
X169190000Y-77734000D03*
D15*
X118750000Y-71384000D03*
D16*
X118750000Y-79004000D03*
D13*
X178440000Y-113179000D03*
D14*
X180980000Y-113179000D03*
X183520000Y-113179000D03*
X186060000Y-113179000D03*
X188600000Y-113179000D03*
X191140000Y-113179000D03*
X193680000Y-113179000D03*
X196220000Y-113179000D03*
X196220000Y-105559000D03*
X193680000Y-105559000D03*
X191140000Y-105559000D03*
X188600000Y-105559000D03*
X186060000Y-105559000D03*
X183520000Y-105559000D03*
X180980000Y-105559000D03*
X178440000Y-105559000D03*
D15*
X81925000Y-79014000D03*
D16*
X81925000Y-71394000D03*
D17*
X156850000Y-146354000D03*
X156850000Y-151354000D03*
D13*
X136525000Y-78994000D03*
D14*
X139065000Y-78994000D03*
X141605000Y-78994000D03*
X144145000Y-78994000D03*
X146685000Y-78994000D03*
X149225000Y-78994000D03*
X151765000Y-78994000D03*
X151765000Y-71374000D03*
X149225000Y-71374000D03*
X146685000Y-71374000D03*
X144145000Y-71374000D03*
X141605000Y-71374000D03*
X139065000Y-71374000D03*
X136525000Y-71374000D03*
D15*
X189870000Y-145044000D03*
D16*
X189870000Y-137424000D03*
D13*
X153055000Y-100469000D03*
D14*
X155595000Y-100469000D03*
X158135000Y-100469000D03*
X160675000Y-100469000D03*
X163215000Y-100469000D03*
X165755000Y-100469000D03*
X168295000Y-100469000D03*
X170835000Y-100469000D03*
X170835000Y-92849000D03*
X168295000Y-92849000D03*
X165755000Y-92849000D03*
X163215000Y-92849000D03*
X160675000Y-92849000D03*
X158135000Y-92849000D03*
X155595000Y-92849000D03*
X153055000Y-92849000D03*
D11*
X125460000Y-133614000D03*
D20*
X125460000Y-131074000D03*
X125460000Y-128534000D03*
D11*
X191120000Y-56139000D03*
D12*
X191120000Y-63759000D03*
D13*
X104780000Y-148854000D03*
D17*
X104780000Y-151354000D03*
D15*
X175900000Y-128534000D03*
D16*
X183520000Y-128534000D03*
D15*
X84455000Y-63754000D03*
D16*
X84455000Y-56134000D03*
D15*
X193660000Y-56144000D03*
D16*
X193660000Y-63764000D03*
D13*
X127640000Y-100479000D03*
D14*
X130180000Y-100479000D03*
X132720000Y-100479000D03*
X135260000Y-100479000D03*
X137800000Y-100479000D03*
X140340000Y-100479000D03*
X142880000Y-100479000D03*
X145420000Y-100479000D03*
X145420000Y-92859000D03*
X142880000Y-92859000D03*
X140340000Y-92859000D03*
X137800000Y-92859000D03*
X135260000Y-92859000D03*
X132720000Y-92859000D03*
X130180000Y-92859000D03*
X127640000Y-92859000D03*
D15*
X183520000Y-131074000D03*
D16*
X175900000Y-131074000D03*
D15*
X103510000Y-79004000D03*
D16*
X103510000Y-71384000D03*
D13*
X98410000Y-63764000D03*
D14*
X100950000Y-63764000D03*
X103490000Y-63764000D03*
X106030000Y-63764000D03*
X108570000Y-63764000D03*
X111110000Y-63764000D03*
X113650000Y-63764000D03*
X116190000Y-63764000D03*
X116190000Y-56144000D03*
X113650000Y-56144000D03*
X111110000Y-56144000D03*
X108570000Y-56144000D03*
X106030000Y-56144000D03*
X103490000Y-56144000D03*
X100950000Y-56144000D03*
X98410000Y-56144000D03*
D11*
X133990000Y-133614000D03*
D20*
X133990000Y-131074000D03*
X133990000Y-128534000D03*
D13*
X130175000Y-113169000D03*
D14*
X132715000Y-113169000D03*
X135255000Y-113169000D03*
X137795000Y-113169000D03*
X140335000Y-113169000D03*
X142875000Y-113169000D03*
X145415000Y-113169000D03*
X145415000Y-105549000D03*
X142875000Y-105549000D03*
X140335000Y-105549000D03*
X137795000Y-105549000D03*
X135255000Y-105549000D03*
X132715000Y-105549000D03*
X130175000Y-105549000D03*
D15*
X188580000Y-63764000D03*
D16*
X188580000Y-56144000D03*
D15*
X79385000Y-79014000D03*
D16*
X79385000Y-71394000D03*
D11*
X159390000Y-142144000D03*
D20*
X156850000Y-142144000D03*
X154310000Y-142144000D03*
D15*
X137800000Y-133614000D03*
D16*
X145420000Y-133614000D03*
D13*
X194950000Y-137424000D03*
D14*
X194950000Y-145044000D03*
D11*
X87905000Y-57404000D03*
D20*
X87905000Y-59944000D03*
X87905000Y-62484000D03*
D15*
X155580000Y-79004000D03*
D16*
X155580000Y-71384000D03*
D15*
X177170000Y-137424000D03*
D16*
X177170000Y-145044000D03*
D11*
X154310000Y-137424000D03*
D20*
X156850000Y-137424000D03*
X159390000Y-137424000D03*
D15*
X186040000Y-63764000D03*
D16*
X186040000Y-56144000D03*
D23*
X72390000Y-121920000D03*
D17*
X94600000Y-57454000D03*
X94600000Y-62454000D03*
D23*
X76200000Y-33020000D03*
D13*
X149225000Y-63754000D03*
D14*
X151765000Y-63754000D03*
X154305000Y-63754000D03*
X156845000Y-63754000D03*
X159385000Y-63754000D03*
X161925000Y-63754000D03*
X164465000Y-63754000D03*
X167005000Y-63754000D03*
X167005000Y-56134000D03*
X164465000Y-56134000D03*
X161925000Y-56134000D03*
X159385000Y-56134000D03*
X156845000Y-56134000D03*
X154305000Y-56134000D03*
X151765000Y-56134000D03*
X149225000Y-56134000D03*
D15*
X94620000Y-79004000D03*
D16*
X94620000Y-71384000D03*
D15*
X145420000Y-128534000D03*
D16*
X137800000Y-128534000D03*
D11*
X85375000Y-72664000D03*
D20*
X85375000Y-75204000D03*
X85375000Y-77744000D03*
D11*
X145420000Y-143779000D03*
D12*
X145420000Y-136159000D03*
D15*
X165740000Y-79004000D03*
D16*
X165740000Y-71384000D03*
D11*
X197470000Y-57414000D03*
D20*
X197470000Y-59954000D03*
X197470000Y-62494000D03*
D15*
X163200000Y-79004000D03*
D16*
X163200000Y-71384000D03*
D15*
X126370000Y-138694000D03*
D16*
X133990000Y-138694000D03*
D11*
X183520000Y-143774000D03*
D20*
X183520000Y-141234000D03*
X183520000Y-138694000D03*
D11*
X163200000Y-143779000D03*
D12*
X163200000Y-136159000D03*
D24*
X70000000Y-105859000D03*
D12*
X73030000Y-105559000D03*
X73030000Y-100709000D03*
D24*
X70000000Y-100409000D03*
D25*
X69870000Y-112024000D03*
D26*
X69870000Y-112924000D03*
D25*
X72410000Y-112024000D03*
D26*
X72410000Y-112924000D03*
D27*
X74950000Y-112024000D03*
D26*
X74950000Y-112924000D03*
D25*
X77490000Y-112024000D03*
D26*
X77490000Y-112924000D03*
D25*
X80030000Y-112024000D03*
D26*
X80030000Y-112924000D03*
D25*
X82570000Y-112024000D03*
D26*
X82570000Y-112924000D03*
D25*
X85110000Y-112024000D03*
D26*
X85110000Y-112924000D03*
D27*
X87650000Y-112024000D03*
D26*
X87650000Y-112924000D03*
D25*
X90190000Y-112024000D03*
D26*
X90190000Y-112924000D03*
D25*
X92730000Y-112024000D03*
D26*
X92730000Y-112924000D03*
D25*
X95270000Y-112024000D03*
D26*
X95270000Y-112924000D03*
D25*
X97810000Y-112024000D03*
D26*
X97810000Y-112924000D03*
D27*
X100350000Y-112024000D03*
D26*
X100350000Y-112924000D03*
D25*
X102890000Y-112024000D03*
D26*
X102890000Y-112924000D03*
D25*
X105430000Y-112024000D03*
D26*
X105430000Y-112924000D03*
D25*
X107970000Y-112024000D03*
D26*
X107970000Y-112924000D03*
D25*
X110510000Y-112024000D03*
D26*
X110510000Y-112924000D03*
D27*
X113050000Y-112024000D03*
D26*
X113050000Y-112924000D03*
D25*
X115590000Y-112024000D03*
D26*
X115590000Y-112924000D03*
D25*
X118130000Y-112024000D03*
D26*
X118130000Y-112924000D03*
D25*
X118130000Y-94244000D03*
D26*
X118130000Y-93344000D03*
D25*
X115590000Y-94244000D03*
D26*
X115590000Y-93344000D03*
D27*
X113050000Y-94244000D03*
D26*
X113050000Y-93344000D03*
D25*
X110510000Y-94244000D03*
D26*
X110510000Y-93344000D03*
D25*
X107970000Y-94244000D03*
D26*
X107970000Y-93344000D03*
D25*
X105430000Y-94244000D03*
D26*
X105430000Y-93344000D03*
D25*
X102890000Y-94244000D03*
D26*
X102890000Y-93344000D03*
D27*
X100350000Y-94244000D03*
D26*
X100350000Y-93344000D03*
D25*
X97810000Y-94244000D03*
D26*
X97810000Y-93344000D03*
D25*
X95270000Y-94244000D03*
D26*
X95270000Y-93344000D03*
D25*
X92730000Y-94244000D03*
D26*
X92730000Y-93344000D03*
D25*
X90190000Y-94244000D03*
D26*
X90190000Y-93344000D03*
D27*
X87650000Y-94244000D03*
D26*
X87650000Y-93344000D03*
D25*
X85110000Y-94244000D03*
D26*
X85110000Y-93344000D03*
D25*
X82570000Y-94244000D03*
D26*
X82570000Y-93344000D03*
D25*
X80030000Y-94244000D03*
D26*
X80030000Y-93344000D03*
D25*
X77490000Y-94244000D03*
D26*
X77490000Y-93344000D03*
D27*
X74950000Y-94244000D03*
D26*
X74950000Y-93344000D03*
D25*
X72410000Y-94244000D03*
D26*
X72410000Y-93344000D03*
D25*
X69870000Y-94244000D03*
D26*
X69870000Y-93344000D03*
D25*
X117900000Y-105674000D03*
D28*
X118800000Y-105674000D03*
D27*
X117900000Y-103134000D03*
D28*
X118800000Y-103134000D03*
D25*
X117900000Y-100594000D03*
D28*
X118800000Y-100594000D03*
D15*
X126370000Y-71384000D03*
D16*
X126370000Y-79004000D03*
D15*
X128910000Y-71384000D03*
D16*
X128910000Y-79004000D03*
D27*
X109860000Y-29474000D03*
D25*
X109860000Y-32014000D03*
X112400000Y-29474000D03*
X112400000Y-32014000D03*
X114940000Y-29474000D03*
X114940000Y-32014000D03*
X117480000Y-29474000D03*
X117480000Y-32014000D03*
X120020000Y-29474000D03*
X120020000Y-32014000D03*
X122560000Y-29474000D03*
X122560000Y-32014000D03*
X125100000Y-29474000D03*
X125100000Y-32014000D03*
X127640000Y-29474000D03*
X127640000Y-32014000D03*
X130180000Y-29474000D03*
X130180000Y-32014000D03*
X132720000Y-29474000D03*
X132720000Y-32014000D03*
D11*
X175880000Y-56139000D03*
D12*
X175880000Y-63759000D03*
D15*
X170800000Y-63764000D03*
D16*
X170800000Y-56144000D03*
D15*
X183520000Y-133614000D03*
D16*
X175900000Y-133614000D03*
D15*
X154310000Y-119529000D03*
D16*
X161930000Y-119529000D03*
D13*
X131450000Y-148471349D03*
D17*
X131450000Y-151971349D03*
X125100000Y-151354000D03*
X125100000Y-146354000D03*
X145400000Y-57494000D03*
X145400000Y-62494000D03*
D13*
X163200000Y-148321349D03*
D17*
X163200000Y-152121349D03*
D15*
X160660000Y-79004000D03*
D16*
X160660000Y-71384000D03*
D15*
X178440000Y-79004000D03*
D16*
X178440000Y-71384000D03*
D11*
X106960000Y-72654000D03*
D20*
X106960000Y-75194000D03*
X106960000Y-77734000D03*
D11*
X158120000Y-79009000D03*
D12*
X158120000Y-71389000D03*
D15*
X172090000Y-143774000D03*
D16*
X172090000Y-151394000D03*
D17*
X98390000Y-151394000D03*
X93390000Y-151394000D03*
D23*
X207010000Y-30480000D03*
D15*
X173360000Y-79004000D03*
D16*
X173360000Y-71384000D03*
D17*
X149230000Y-94169000D03*
X149230000Y-99169000D03*
D11*
X175900000Y-79009000D03*
D12*
X175900000Y-71389000D03*
D27*
X142875000Y-29474000D03*
D25*
X142875000Y-32014000D03*
X145415000Y-29474000D03*
X145415000Y-32014000D03*
X147955000Y-29474000D03*
X147955000Y-32014000D03*
X150495000Y-29474000D03*
X150495000Y-32014000D03*
X153035000Y-29474000D03*
X153035000Y-32014000D03*
X155575000Y-29474000D03*
X155575000Y-32014000D03*
X158115000Y-29474000D03*
X158115000Y-32014000D03*
X160655000Y-29474000D03*
X160655000Y-32014000D03*
X163195000Y-29474000D03*
X163195000Y-32014000D03*
X165735000Y-29474000D03*
X165735000Y-32014000D03*
X168275000Y-29474000D03*
X168275000Y-32014000D03*
X170815000Y-29474000D03*
X170815000Y-32014000D03*
X173355000Y-29474000D03*
X173355000Y-32014000D03*
X175895000Y-29474000D03*
X175895000Y-32014000D03*
X178435000Y-29474000D03*
X178435000Y-32014000D03*
X180975000Y-29474000D03*
X180975000Y-32014000D03*
X183515000Y-29474000D03*
X183515000Y-32014000D03*
X186055000Y-29474000D03*
X186055000Y-32014000D03*
X188595000Y-29474000D03*
X188595000Y-32014000D03*
X191135000Y-29474000D03*
X191135000Y-32014000D03*
X193675000Y-29474000D03*
X193675000Y-32014000D03*
X196215000Y-29474000D03*
X196215000Y-32014000D03*
X198755000Y-29474000D03*
X198755000Y-32014000D03*
X201295000Y-29474000D03*
X201295000Y-32014000D03*
D15*
X111130000Y-71384000D03*
D16*
X111130000Y-79004000D03*
D15*
X97160000Y-79004000D03*
D16*
X97160000Y-71384000D03*
D17*
X174630000Y-106869000D03*
X174630000Y-111869000D03*
D23*
X207010000Y-143510000D03*
D15*
X161930000Y-131074000D03*
D16*
X154310000Y-131074000D03*
D17*
X174630000Y-94169000D03*
X174630000Y-99169000D03*
D15*
X169550000Y-143774000D03*
D16*
X169550000Y-151394000D03*
D11*
X90450000Y-72654000D03*
D20*
X90450000Y-75194000D03*
X90450000Y-77734000D03*
D18*
X139070000Y-151394000D03*
D19*
X139070000Y-148854000D03*
D13*
X123825000Y-63754000D03*
D14*
X126365000Y-63754000D03*
X128905000Y-63754000D03*
X131445000Y-63754000D03*
X133985000Y-63754000D03*
X136525000Y-63754000D03*
X139065000Y-63754000D03*
X141605000Y-63754000D03*
X141605000Y-56134000D03*
X139065000Y-56134000D03*
X136525000Y-56134000D03*
X133985000Y-56134000D03*
X131445000Y-56134000D03*
X128905000Y-56134000D03*
X126365000Y-56134000D03*
X123825000Y-56134000D03*
D11*
X121290000Y-143769000D03*
D12*
X121290000Y-151389000D03*
D29*
X112140000Y-146314000D03*
X117740000Y-146314000D03*
D15*
X113670000Y-79004000D03*
D16*
X113670000Y-71384000D03*
D11*
X186970000Y-72654000D03*
D20*
X186970000Y-75194000D03*
X186970000Y-77734000D03*
D13*
X200030000Y-145044000D03*
D14*
X200030000Y-152664000D03*
D15*
X180980000Y-79004000D03*
D16*
X180980000Y-71384000D03*
D17*
X123830000Y-94169000D03*
X123830000Y-99169000D03*
D15*
X173340000Y-63764000D03*
D16*
X173340000Y-56144000D03*
D29*
X166750000Y-133614000D03*
X172350000Y-133614000D03*
D17*
X149230000Y-106869000D03*
X149230000Y-111869000D03*
D30*
X75540000Y-139354000D03*
X75540000Y-132904000D03*
X106540000Y-132904000D03*
X106540000Y-139404000D03*
D15*
X194950000Y-127264000D03*
D16*
X194950000Y-134884000D03*
D15*
X112400000Y-136154000D03*
D16*
X112400000Y-128534000D03*
D11*
X170820000Y-117899000D03*
D20*
X168280000Y-117899000D03*
X165740000Y-117899000D03*
D13*
X189870000Y-134884000D03*
D14*
X189870000Y-127264000D03*
D15*
X154310000Y-116989000D03*
D16*
X161930000Y-116989000D03*
D17*
X132720000Y-72654000D03*
X132720000Y-77654000D03*
D15*
X121290000Y-136154000D03*
D16*
X121290000Y-128534000D03*
D13*
X153040000Y-113179000D03*
D14*
X155580000Y-113179000D03*
X158120000Y-113179000D03*
X160660000Y-113179000D03*
X163200000Y-113179000D03*
X165740000Y-113179000D03*
X168280000Y-113179000D03*
X170820000Y-113179000D03*
X170820000Y-105559000D03*
X168280000Y-105559000D03*
X165740000Y-105559000D03*
X163200000Y-105559000D03*
X160660000Y-105559000D03*
X158120000Y-105559000D03*
X155580000Y-105559000D03*
X153040000Y-105559000D03*
D15*
X139070000Y-136154000D03*
D16*
X139070000Y-143774000D03*
D15*
X178420000Y-56144000D03*
D16*
X178420000Y-63764000D03*
D15*
X81915000Y-63754000D03*
D16*
X81915000Y-56134000D03*
D18*
X87000000Y-151394000D03*
D19*
X87000000Y-148854000D03*
D13*
X79380000Y-148894000D03*
D17*
X79380000Y-151394000D03*
D10*
X183520000Y-150124000D03*
M02*
